<?xml version="1.0" encoding="utf-8"?>
<svg xmlns="http://www.w3.org/2000/svg" xmlns:xlink="http://www.w3.org/1999/xlink" style="margin: auto; background: rgb(241, 242, 243); display: block; z-index: 1; position: relative; shape-rendering: auto;" width="1904" height="955" preserveAspectRatio="xMidYMid" viewBox="0 0 1904 955">
<g transform="translate(952,477.5) scale(1,1) translate(-952,-477.5)"><defs>
<linearGradient id="lg-0.10418048016608594" x1="0" x2="0" y1="0" y2="1">
  <stop stop-color="#26202a" offset="0"></stop>
  <stop stop-color="#8176b4" offset="1"></stop>
</linearGradient>
</defs>
<rect x="0" y="0" width="1904" height="955" fill="url(#lg-0.10418048016608594)"></rect><g transform="translate(1772.497560554263 575.4916808763156) rotate(36.611399036847445) scale(0.31886547314653435)">
<path fill="#e0d7e8" d="M6.38-8.33C5.84-10.74,5-13.08,3.83-15.26c-0.85-1.58-1.98-4.16-4.16-3.86c-1.93,0.26-3.02,2.91-3.79,4.44 c-0.51,1-0.95,2.03-1.32,3.09c-0.37,1.06-0.47,2.86-1.16,3.72c-0.67,0.83-2.16,0.35-3.08,0.33c-1.36-0.03-2.71,0.04-4.06,0.21 c-1.72,0.22-4.81,0.42-5.85,2.03c-1.25,1.94,0.7,3.8,1.93,5.13c1.68,1.82,3.6,3.27,5.67,4.62c1.14,0.74,1.08,1.25,0.59,2.47 c-0.51,1.28-0.93,2.59-1.25,3.92c-0.44,1.86-1.34,5.14-0.4,6.93c1.16,2.23,3.65,1.11,5.37,0.35c2.37-1.05,4.49-2.47,6.49-4.1 c1.2-0.97,1.67-0.56,2.78,0.35c1.06,0.86,2.17,1.65,3.35,2.35c1.59,0.95,4.49,2.84,6.43,2.36c2.4-0.58,2-3.33,1.8-5.2 c-0.29-2.64-1.16-4.97-1.98-7.47c-0.5-1.54,0.7-1.87,1.83-2.64c1.09-0.73,2.12-1.54,3.09-2.42c1.41-1.28,4.24-3.58,3.84-5.73 c-0.45-2.42-4.05-2.66-6-2.93c-1.34-0.19-2.68-0.26-4.03-0.24C8.93-7.54,6.7-6.89,6.38-8.33z"></path>
</g><g transform="translate(84.39949810551929 326.98173925532615) rotate(238.09767550185376) scale(0.31019563320358906)">
<path fill="#e0d7e8" d="M6.38-8.33C5.84-10.74,5-13.08,3.83-15.26c-0.85-1.58-1.98-4.16-4.16-3.86c-1.93,0.26-3.02,2.91-3.79,4.44 c-0.51,1-0.95,2.03-1.32,3.09c-0.37,1.06-0.47,2.86-1.16,3.72c-0.67,0.83-2.16,0.35-3.08,0.33c-1.36-0.03-2.71,0.04-4.06,0.21 c-1.72,0.22-4.81,0.42-5.85,2.03c-1.25,1.94,0.7,3.8,1.93,5.13c1.68,1.82,3.6,3.27,5.67,4.62c1.14,0.74,1.08,1.25,0.59,2.47 c-0.51,1.28-0.93,2.59-1.25,3.92c-0.44,1.86-1.34,5.14-0.4,6.93c1.16,2.23,3.65,1.11,5.37,0.35c2.37-1.05,4.49-2.47,6.49-4.1 c1.2-0.97,1.67-0.56,2.78,0.35c1.06,0.86,2.17,1.65,3.35,2.35c1.59,0.95,4.49,2.84,6.43,2.36c2.4-0.58,2-3.33,1.8-5.2 c-0.29-2.64-1.16-4.97-1.98-7.47c-0.5-1.54,0.7-1.87,1.83-2.64c1.09-0.73,2.12-1.54,3.09-2.42c1.41-1.28,4.24-3.58,3.84-5.73 c-0.45-2.42-4.05-2.66-6-2.93c-1.34-0.19-2.68-0.26-4.03-0.24C8.93-7.54,6.7-6.89,6.38-8.33z"></path>
</g><g transform="translate(1866.895218868428 46.50197686556198) rotate(257.8408491925649) scale(0.3573097837774109)">
<path fill="#8b7a98" d="M6.38-8.33C5.84-10.74,5-13.08,3.83-15.26c-0.85-1.58-1.98-4.16-4.16-3.86c-1.93,0.26-3.02,2.91-3.79,4.44 c-0.51,1-0.95,2.03-1.32,3.09c-0.37,1.06-0.47,2.86-1.16,3.72c-0.67,0.83-2.16,0.35-3.08,0.33c-1.36-0.03-2.71,0.04-4.06,0.21 c-1.72,0.22-4.81,0.42-5.85,2.03c-1.25,1.94,0.7,3.8,1.93,5.13c1.68,1.82,3.6,3.27,5.67,4.62c1.14,0.74,1.08,1.25,0.59,2.47 c-0.51,1.28-0.93,2.59-1.25,3.92c-0.44,1.86-1.34,5.14-0.4,6.93c1.16,2.23,3.65,1.11,5.37,0.35c2.37-1.05,4.49-2.47,6.49-4.1 c1.2-0.97,1.67-0.56,2.78,0.35c1.06,0.86,2.17,1.65,3.35,2.35c1.59,0.95,4.49,2.84,6.43,2.36c2.4-0.58,2-3.33,1.8-5.2 c-0.29-2.64-1.16-4.97-1.98-7.47c-0.5-1.54,0.7-1.87,1.83-2.64c1.09-0.73,2.12-1.54,3.09-2.42c1.41-1.28,4.24-3.58,3.84-5.73 c-0.45-2.42-4.05-2.66-6-2.93c-1.34-0.19-2.68-0.26-4.03-0.24C8.93-7.54,6.7-6.89,6.38-8.33z"></path>
</g><g transform="translate(1080.7559999216926 441.51309612803675) rotate(141.18352232416606) scale(0.3186141115542011)">
<path fill="#e0d7e8" d="M6.38-8.33C5.84-10.74,5-13.08,3.83-15.26c-0.85-1.58-1.98-4.16-4.16-3.86c-1.93,0.26-3.02,2.91-3.79,4.44 c-0.51,1-0.95,2.03-1.32,3.09c-0.37,1.06-0.47,2.86-1.16,3.72c-0.67,0.83-2.16,0.35-3.08,0.33c-1.36-0.03-2.71,0.04-4.06,0.21 c-1.72,0.22-4.81,0.42-5.85,2.03c-1.25,1.94,0.7,3.8,1.93,5.13c1.68,1.82,3.6,3.27,5.67,4.62c1.14,0.74,1.08,1.25,0.59,2.47 c-0.51,1.28-0.93,2.59-1.25,3.92c-0.44,1.86-1.34,5.14-0.4,6.93c1.16,2.23,3.65,1.11,5.37,0.35c2.37-1.05,4.49-2.47,6.49-4.1 c1.2-0.97,1.67-0.56,2.78,0.35c1.06,0.86,2.17,1.65,3.35,2.35c1.59,0.95,4.49,2.84,6.43,2.36c2.4-0.58,2-3.33,1.8-5.2 c-0.29-2.64-1.16-4.97-1.98-7.47c-0.5-1.54,0.7-1.87,1.83-2.64c1.09-0.73,2.12-1.54,3.09-2.42c1.41-1.28,4.24-3.58,3.84-5.73 c-0.45-2.42-4.05-2.66-6-2.93c-1.34-0.19-2.68-0.26-4.03-0.24C8.93-7.54,6.7-6.89,6.38-8.33z"></path>
</g><g transform="translate(903.047715699803 740.8421498519369) rotate(309.94501829987087) scale(0.3303092172562633)">
<path fill="#8b7a98" d="M6.38-8.33C5.84-10.74,5-13.08,3.83-15.26c-0.85-1.58-1.98-4.16-4.16-3.86c-1.93,0.26-3.02,2.91-3.79,4.44 c-0.51,1-0.95,2.03-1.32,3.09c-0.37,1.06-0.47,2.86-1.16,3.72c-0.67,0.83-2.16,0.35-3.08,0.33c-1.36-0.03-2.71,0.04-4.06,0.21 c-1.72,0.22-4.81,0.42-5.85,2.03c-1.25,1.94,0.7,3.8,1.93,5.13c1.68,1.82,3.6,3.27,5.67,4.62c1.14,0.74,1.08,1.25,0.59,2.47 c-0.51,1.28-0.93,2.59-1.25,3.92c-0.44,1.86-1.34,5.14-0.4,6.93c1.16,2.23,3.65,1.11,5.37,0.35c2.37-1.05,4.49-2.47,6.49-4.1 c1.2-0.97,1.67-0.56,2.78,0.35c1.06,0.86,2.17,1.65,3.35,2.35c1.59,0.95,4.49,2.84,6.43,2.36c2.4-0.58,2-3.33,1.8-5.2 c-0.29-2.64-1.16-4.97-1.98-7.47c-0.5-1.54,0.7-1.87,1.83-2.64c1.09-0.73,2.12-1.54,3.09-2.42c1.41-1.28,4.24-3.58,3.84-5.73 c-0.45-2.42-4.05-2.66-6-2.93c-1.34-0.19-2.68-0.26-4.03-0.24C8.93-7.54,6.7-6.89,6.38-8.33z"></path>
</g><g transform="translate(561.0816266797069 588.8471522288339) rotate(342.6767554370007) scale(0.13076826999501723)">
<g>
<path fill="#e0d7e8" d="M6.38-8.33C5.84-10.74,5-13.08,3.83-15.26c-0.85-1.58-1.98-4.16-4.16-3.86c-1.93,0.26-3.02,2.91-3.79,4.44 c-0.51,1-0.95,2.03-1.32,3.09c-0.37,1.06-0.47,2.86-1.16,3.72c-0.67,0.83-2.16,0.35-3.08,0.33c-1.36-0.03-2.71,0.04-4.06,0.21 c-1.72,0.22-4.81,0.42-5.85,2.03c-1.25,1.94,0.7,3.8,1.93,5.13c1.68,1.82,3.6,3.27,5.67,4.62c1.14,0.74,1.08,1.25,0.59,2.47 c-0.51,1.28-0.93,2.59-1.25,3.92c-0.44,1.86-1.34,5.14-0.4,6.93c1.16,2.23,3.65,1.11,5.37,0.35c2.37-1.05,4.49-2.47,6.49-4.1 c1.2-0.97,1.67-0.56,2.78,0.35c1.06,0.86,2.17,1.65,3.35,2.35c1.59,0.95,4.49,2.84,6.43,2.36c2.4-0.58,2-3.33,1.8-5.2 c-0.29-2.64-1.16-4.97-1.98-7.47c-0.5-1.54,0.7-1.87,1.83-2.64c1.09-0.73,2.12-1.54,3.09-2.42c1.41-1.28,4.24-3.58,3.84-5.73 c-0.45-2.42-4.05-2.66-6-2.93c-1.34-0.19-2.68-0.26-4.03-0.24C8.93-7.54,6.7-6.89,6.38-8.33z"></path>
<animateTransform attributeName="transform" type="rotate" dur="0.8130081300813008s" repeatCount="indefinite" keyTimes="0;0.5;1" calcMode="spline" keySplines="0.4 0 0.6 1;0.4 0 0.6 1" begin="-0.09817456665132689s" values="-10;10;-10"></animateTransform>
</g>
</g><g transform="translate(655.4376763387165 148.5452687888267) rotate(241.3219426527128) scale(0.17175562845341238)">
<g>
<path fill="#8b7a98" d="M6.38-8.33C5.84-10.74,5-13.08,3.83-15.26c-0.85-1.58-1.98-4.16-4.16-3.86c-1.93,0.26-3.02,2.91-3.79,4.44 c-0.51,1-0.95,2.03-1.32,3.09c-0.37,1.06-0.47,2.86-1.16,3.72c-0.67,0.83-2.16,0.35-3.08,0.33c-1.36-0.03-2.71,0.04-4.06,0.21 c-1.72,0.22-4.81,0.42-5.85,2.03c-1.25,1.94,0.7,3.8,1.93,5.13c1.68,1.82,3.6,3.27,5.67,4.62c1.14,0.74,1.08,1.25,0.59,2.47 c-0.51,1.28-0.93,2.59-1.25,3.92c-0.44,1.86-1.34,5.14-0.4,6.93c1.16,2.23,3.65,1.11,5.37,0.35c2.37-1.05,4.49-2.47,6.49-4.1 c1.2-0.97,1.67-0.56,2.78,0.35c1.06,0.86,2.17,1.65,3.35,2.35c1.59,0.95,4.49,2.84,6.43,2.36c2.4-0.58,2-3.33,1.8-5.2 c-0.29-2.64-1.16-4.97-1.98-7.47c-0.5-1.54,0.7-1.87,1.83-2.64c1.09-0.73,2.12-1.54,3.09-2.42c1.41-1.28,4.24-3.58,3.84-5.73 c-0.45-2.42-4.05-2.66-6-2.93c-1.34-0.19-2.68-0.26-4.03-0.24C8.93-7.54,6.7-6.89,6.38-8.33z"></path>
<animateTransform attributeName="transform" type="rotate" dur="0.8130081300813008s" repeatCount="indefinite" keyTimes="0;0.5;1" calcMode="spline" keySplines="0.4 0 0.6 1;0.4 0 0.6 1" begin="-0.1227182083141586s" values="-10;10;-10"></animateTransform>
</g>
</g><g transform="translate(1704.6076719493046 365.58597015961186) rotate(81.85748884786264) scale(0.12001979358843583)">
<g>
<path fill="#8b7a98" d="M6.38-8.33C5.84-10.74,5-13.08,3.83-15.26c-0.85-1.58-1.98-4.16-4.16-3.86c-1.93,0.26-3.02,2.91-3.79,4.44 c-0.51,1-0.95,2.03-1.32,3.09c-0.37,1.06-0.47,2.86-1.16,3.72c-0.67,0.83-2.16,0.35-3.08,0.33c-1.36-0.03-2.71,0.04-4.06,0.21 c-1.72,0.22-4.81,0.42-5.85,2.03c-1.25,1.94,0.7,3.8,1.93,5.13c1.68,1.82,3.6,3.27,5.67,4.62c1.14,0.74,1.08,1.25,0.59,2.47 c-0.51,1.28-0.93,2.59-1.25,3.92c-0.44,1.86-1.34,5.14-0.4,6.93c1.16,2.23,3.65,1.11,5.37,0.35c2.37-1.05,4.49-2.47,6.49-4.1 c1.2-0.97,1.67-0.56,2.78,0.35c1.06,0.86,2.17,1.65,3.35,2.35c1.59,0.95,4.49,2.84,6.43,2.36c2.4-0.58,2-3.33,1.8-5.2 c-0.29-2.64-1.16-4.97-1.98-7.47c-0.5-1.54,0.7-1.87,1.83-2.64c1.09-0.73,2.12-1.54,3.09-2.42c1.41-1.28,4.24-3.58,3.84-5.73 c-0.45-2.42-4.05-2.66-6-2.93c-1.34-0.19-2.68-0.26-4.03-0.24C8.93-7.54,6.7-6.89,6.38-8.33z"></path>
<animateTransform attributeName="transform" type="rotate" dur="0.8130081300813008s" repeatCount="indefinite" keyTimes="0;0.5;1" calcMode="spline" keySplines="0.4 0 0.6 1;0.4 0 0.6 1" begin="-0.14726184997699032s" values="-10;10;-10"></animateTransform>
</g>
</g><g transform="translate(151.38166228175467 770.4280103477229) rotate(45.754665379212355) scale(0.166263085625181)">
<g>
<path fill="#e0d7e8" d="M6.38-8.33C5.84-10.74,5-13.08,3.83-15.26c-0.85-1.58-1.98-4.16-4.16-3.86c-1.93,0.26-3.02,2.91-3.79,4.44 c-0.51,1-0.95,2.03-1.32,3.09c-0.37,1.06-0.47,2.86-1.16,3.72c-0.67,0.83-2.16,0.35-3.08,0.33c-1.36-0.03-2.71,0.04-4.06,0.21 c-1.72,0.22-4.81,0.42-5.85,2.03c-1.25,1.94,0.7,3.8,1.93,5.13c1.68,1.82,3.6,3.27,5.67,4.62c1.14,0.74,1.08,1.25,0.59,2.47 c-0.51,1.28-0.93,2.59-1.25,3.92c-0.44,1.86-1.34,5.14-0.4,6.93c1.16,2.23,3.65,1.11,5.37,0.35c2.37-1.05,4.49-2.47,6.49-4.1 c1.2-0.97,1.67-0.56,2.78,0.35c1.06,0.86,2.17,1.65,3.35,2.35c1.59,0.95,4.49,2.84,6.43,2.36c2.4-0.58,2-3.33,1.8-5.2 c-0.29-2.64-1.16-4.97-1.98-7.47c-0.5-1.54,0.7-1.87,1.83-2.64c1.09-0.73,2.12-1.54,3.09-2.42c1.41-1.28,4.24-3.58,3.84-5.73 c-0.45-2.42-4.05-2.66-6-2.93c-1.34-0.19-2.68-0.26-4.03-0.24C8.93-7.54,6.7-6.89,6.38-8.33z"></path>
<animateTransform attributeName="transform" type="rotate" dur="0.8130081300813008s" repeatCount="indefinite" keyTimes="0;0.5;1" calcMode="spline" keySplines="0.4 0 0.6 1;0.4 0 0.6 1" begin="-0.17180549163982206s" values="-10;10;-10"></animateTransform>
</g>
</g><g transform="translate(147.3942373608649 540.8285559683245) rotate(243.80521122751964) scale(0.14894645171672397)">
<g>
<path fill="#8b7a98" d="M6.38-8.33C5.84-10.74,5-13.08,3.83-15.26c-0.85-1.58-1.98-4.16-4.16-3.86c-1.93,0.26-3.02,2.91-3.79,4.44 c-0.51,1-0.95,2.03-1.32,3.09c-0.37,1.06-0.47,2.86-1.16,3.72c-0.67,0.83-2.16,0.35-3.08,0.33c-1.36-0.03-2.71,0.04-4.06,0.21 c-1.72,0.22-4.81,0.42-5.85,2.03c-1.25,1.94,0.7,3.8,1.93,5.13c1.68,1.82,3.6,3.27,5.67,4.62c1.14,0.74,1.08,1.25,0.59,2.47 c-0.51,1.28-0.93,2.59-1.25,3.92c-0.44,1.86-1.34,5.14-0.4,6.93c1.16,2.23,3.65,1.11,5.37,0.35c2.37-1.05,4.49-2.47,6.49-4.1 c1.2-0.97,1.67-0.56,2.78,0.35c1.06,0.86,2.17,1.65,3.35,2.35c1.59,0.95,4.49,2.84,6.43,2.36c2.4-0.58,2-3.33,1.8-5.2 c-0.29-2.64-1.16-4.97-1.98-7.47c-0.5-1.54,0.7-1.87,1.83-2.64c1.09-0.73,2.12-1.54,3.09-2.42c1.41-1.28,4.24-3.58,3.84-5.73 c-0.45-2.42-4.05-2.66-6-2.93c-1.34-0.19-2.68-0.26-4.03-0.24C8.93-7.54,6.7-6.89,6.38-8.33z"></path>
<animateTransform attributeName="transform" type="rotate" dur="0.8130081300813008s" repeatCount="indefinite" keyTimes="0;0.5;1" calcMode="spline" keySplines="0.4 0 0.6 1;0.4 0 0.6 1" begin="-0.19634913330265377s" values="-10;10;-10"></animateTransform>
</g>
</g><g transform="translate(1196.7482236944022 768.0395710125317) rotate(340.2442909178438) scale(0.13895387953546257)">
<g>
<path fill="#e0d7e8" d="M6.38-8.33C5.84-10.74,5-13.08,3.83-15.26c-0.85-1.58-1.98-4.16-4.16-3.86c-1.93,0.26-3.02,2.91-3.79,4.44 c-0.51,1-0.95,2.03-1.32,3.09c-0.37,1.06-0.47,2.86-1.16,3.72c-0.67,0.83-2.16,0.35-3.08,0.33c-1.36-0.03-2.71,0.04-4.06,0.21 c-1.72,0.22-4.81,0.42-5.85,2.03c-1.25,1.94,0.7,3.8,1.93,5.13c1.68,1.82,3.6,3.27,5.67,4.62c1.14,0.74,1.08,1.25,0.59,2.47 c-0.51,1.28-0.93,2.59-1.25,3.92c-0.44,1.86-1.34,5.14-0.4,6.93c1.16,2.23,3.65,1.11,5.37,0.35c2.37-1.05,4.49-2.47,6.49-4.1 c1.2-0.97,1.67-0.56,2.78,0.35c1.06,0.86,2.17,1.65,3.35,2.35c1.59,0.95,4.49,2.84,6.43,2.36c2.4-0.58,2-3.33,1.8-5.2 c-0.29-2.64-1.16-4.97-1.98-7.47c-0.5-1.54,0.7-1.87,1.83-2.64c1.09-0.73,2.12-1.54,3.09-2.42c1.41-1.28,4.24-3.58,3.84-5.73 c-0.45-2.42-4.05-2.66-6-2.93c-1.34-0.19-2.68-0.26-4.03-0.24C8.93-7.54,6.7-6.89,6.38-8.33z"></path>
<animateTransform attributeName="transform" type="rotate" dur="0.8130081300813008s" repeatCount="indefinite" keyTimes="0;0.5;1" calcMode="spline" keySplines="0.4 0 0.6 1;0.4 0 0.6 1" begin="-0.22089277496548548s" values="-10;10;-10"></animateTransform>
</g>
</g><g transform="translate(831.8981253986896 455.5887664901011) rotate(244.55329166816335) scale(0.17089359351615382)">
<g>
<path fill="#8b7a98" d="M6.38-8.33C5.84-10.74,5-13.08,3.83-15.26c-0.85-1.58-1.98-4.16-4.16-3.86c-1.93,0.26-3.02,2.91-3.79,4.44 c-0.51,1-0.95,2.03-1.32,3.09c-0.37,1.06-0.47,2.86-1.16,3.72c-0.67,0.83-2.16,0.35-3.08,0.33c-1.36-0.03-2.71,0.04-4.06,0.21 c-1.72,0.22-4.81,0.42-5.85,2.03c-1.25,1.94,0.7,3.8,1.93,5.13c1.68,1.82,3.6,3.27,5.67,4.62c1.14,0.74,1.08,1.25,0.59,2.47 c-0.51,1.28-0.93,2.59-1.25,3.92c-0.44,1.86-1.34,5.14-0.4,6.93c1.16,2.23,3.65,1.11,5.37,0.35c2.37-1.05,4.49-2.47,6.49-4.1 c1.2-0.97,1.67-0.56,2.78,0.35c1.06,0.86,2.17,1.65,3.35,2.35c1.59,0.95,4.49,2.84,6.43,2.36c2.4-0.58,2-3.33,1.8-5.2 c-0.29-2.64-1.16-4.97-1.98-7.47c-0.5-1.54,0.7-1.87,1.83-2.64c1.09-0.73,2.12-1.54,3.09-2.42c1.41-1.28,4.24-3.58,3.84-5.73 c-0.45-2.42-4.05-2.66-6-2.93c-1.34-0.19-2.68-0.26-4.03-0.24C8.93-7.54,6.7-6.89,6.38-8.33z"></path>
<animateTransform attributeName="transform" type="rotate" dur="0.8130081300813008s" repeatCount="indefinite" keyTimes="0;0.5;1" calcMode="spline" keySplines="0.4 0 0.6 1;0.4 0 0.6 1" begin="-0.2454364166283172s" values="-10;10;-10"></animateTransform>
</g>
</g><g transform="translate(1440.520323019311 886.9818989241588) rotate(89.53226897428074) scale(0.12196001424070971)">
<g>
<path fill="#e0d7e8" d="M6.38-8.33C5.84-10.74,5-13.08,3.83-15.26c-0.85-1.58-1.98-4.16-4.16-3.86c-1.93,0.26-3.02,2.91-3.79,4.44 c-0.51,1-0.95,2.03-1.32,3.09c-0.37,1.06-0.47,2.86-1.16,3.72c-0.67,0.83-2.16,0.35-3.08,0.33c-1.36-0.03-2.71,0.04-4.06,0.21 c-1.72,0.22-4.81,0.42-5.85,2.03c-1.25,1.94,0.7,3.8,1.93,5.13c1.68,1.82,3.6,3.27,5.67,4.62c1.14,0.74,1.08,1.25,0.59,2.47 c-0.51,1.28-0.93,2.59-1.25,3.92c-0.44,1.86-1.34,5.14-0.4,6.93c1.16,2.23,3.65,1.11,5.37,0.35c2.37-1.05,4.49-2.47,6.49-4.1 c1.2-0.97,1.67-0.56,2.78,0.35c1.06,0.86,2.17,1.65,3.35,2.35c1.59,0.95,4.49,2.84,6.43,2.36c2.4-0.58,2-3.33,1.8-5.2 c-0.29-2.64-1.16-4.97-1.98-7.47c-0.5-1.54,0.7-1.87,1.83-2.64c1.09-0.73,2.12-1.54,3.09-2.42c1.41-1.28,4.24-3.58,3.84-5.73 c-0.45-2.42-4.05-2.66-6-2.93c-1.34-0.19-2.68-0.26-4.03-0.24C8.93-7.54,6.7-6.89,6.38-8.33z"></path>
<animateTransform attributeName="transform" type="rotate" dur="0.8130081300813008s" repeatCount="indefinite" keyTimes="0;0.5;1" calcMode="spline" keySplines="0.4 0 0.6 1;0.4 0 0.6 1" begin="-0.26998005829114896s" values="-10;10;-10"></animateTransform>
</g>
</g><g transform="translate(492.18785215143674 857.6257270928737) rotate(218.35268082033627) scale(0.14753097328843573)">
<g>
<path fill="#8b7a98" d="M6.38-8.33C5.84-10.74,5-13.08,3.83-15.26c-0.85-1.58-1.98-4.16-4.16-3.86c-1.93,0.26-3.02,2.91-3.79,4.44 c-0.51,1-0.95,2.03-1.32,3.09c-0.37,1.06-0.47,2.86-1.16,3.72c-0.67,0.83-2.16,0.35-3.08,0.33c-1.36-0.03-2.71,0.04-4.06,0.21 c-1.72,0.22-4.81,0.42-5.85,2.03c-1.25,1.94,0.7,3.8,1.93,5.13c1.68,1.82,3.6,3.27,5.67,4.62c1.14,0.74,1.08,1.25,0.59,2.47 c-0.51,1.28-0.93,2.59-1.25,3.92c-0.44,1.86-1.34,5.14-0.4,6.93c1.16,2.23,3.65,1.11,5.37,0.35c2.37-1.05,4.49-2.47,6.49-4.1 c1.2-0.97,1.67-0.56,2.78,0.35c1.06,0.86,2.17,1.65,3.35,2.35c1.59,0.95,4.49,2.84,6.43,2.36c2.4-0.58,2-3.33,1.8-5.2 c-0.29-2.64-1.16-4.97-1.98-7.47c-0.5-1.54,0.7-1.87,1.83-2.64c1.09-0.73,2.12-1.54,3.09-2.42c1.41-1.28,4.24-3.58,3.84-5.73 c-0.45-2.42-4.05-2.66-6-2.93c-1.34-0.19-2.68-0.26-4.03-0.24C8.93-7.54,6.7-6.89,6.38-8.33z"></path>
<animateTransform attributeName="transform" type="rotate" dur="0.8130081300813008s" repeatCount="indefinite" keyTimes="0;0.5;1" calcMode="spline" keySplines="0.4 0 0.6 1;0.4 0 0.6 1" begin="-0.29452369995398064s" values="-10;10;-10"></animateTransform>
</g>
</g><g transform="translate(232.58546285431353 868.0097847153693) rotate(260.8865964769034) scale(0.14603817159856877)">
<g>
<path fill="#8b7a98" d="M6.38-8.33C5.84-10.74,5-13.08,3.83-15.26c-0.85-1.58-1.98-4.16-4.16-3.86c-1.93,0.26-3.02,2.91-3.79,4.44 c-0.51,1-0.95,2.03-1.32,3.09c-0.37,1.06-0.47,2.86-1.16,3.72c-0.67,0.83-2.16,0.35-3.08,0.33c-1.36-0.03-2.71,0.04-4.06,0.21 c-1.72,0.22-4.81,0.42-5.85,2.03c-1.25,1.94,0.7,3.8,1.93,5.13c1.68,1.82,3.6,3.27,5.67,4.62c1.14,0.74,1.08,1.25,0.59,2.47 c-0.51,1.28-0.93,2.59-1.25,3.92c-0.44,1.86-1.34,5.14-0.4,6.93c1.16,2.23,3.65,1.11,5.37,0.35c2.37-1.05,4.49-2.47,6.49-4.1 c1.2-0.97,1.67-0.56,2.78,0.35c1.06,0.86,2.17,1.65,3.35,2.35c1.59,0.95,4.49,2.84,6.43,2.36c2.4-0.58,2-3.33,1.8-5.2 c-0.29-2.64-1.16-4.97-1.98-7.47c-0.5-1.54,0.7-1.87,1.83-2.64c1.09-0.73,2.12-1.54,3.09-2.42c1.41-1.28,4.24-3.58,3.84-5.73 c-0.45-2.42-4.05-2.66-6-2.93c-1.34-0.19-2.68-0.26-4.03-0.24C8.93-7.54,6.7-6.89,6.38-8.33z"></path>
<animateTransform attributeName="transform" type="rotate" dur="0.8130081300813008s" repeatCount="indefinite" keyTimes="0;0.5;1" calcMode="spline" keySplines="0.4 0 0.6 1;0.4 0 0.6 1" begin="-0.3190673416168124s" values="-10;10;-10"></animateTransform>
</g>
</g><g transform="translate(406.38573409065845 189.2425780983589) rotate(172.2803661875634) scale(0.13115945151945668)">
<g>
<path fill="#8b7a98" d="M6.38-8.33C5.84-10.74,5-13.08,3.83-15.26c-0.85-1.58-1.98-4.16-4.16-3.86c-1.93,0.26-3.02,2.91-3.79,4.44 c-0.51,1-0.95,2.03-1.32,3.09c-0.37,1.06-0.47,2.86-1.16,3.72c-0.67,0.83-2.16,0.35-3.08,0.33c-1.36-0.03-2.71,0.04-4.06,0.21 c-1.72,0.22-4.81,0.42-5.85,2.03c-1.25,1.94,0.7,3.8,1.93,5.13c1.68,1.82,3.6,3.27,5.67,4.62c1.14,0.74,1.08,1.25,0.59,2.47 c-0.51,1.28-0.93,2.59-1.25,3.92c-0.44,1.86-1.34,5.14-0.4,6.93c1.16,2.23,3.65,1.11,5.37,0.35c2.37-1.05,4.49-2.47,6.49-4.1 c1.2-0.97,1.67-0.56,2.78,0.35c1.06,0.86,2.17,1.65,3.35,2.35c1.59,0.95,4.49,2.84,6.43,2.36c2.4-0.58,2-3.33,1.8-5.2 c-0.29-2.64-1.16-4.97-1.98-7.47c-0.5-1.54,0.7-1.87,1.83-2.64c1.09-0.73,2.12-1.54,3.09-2.42c1.41-1.28,4.24-3.58,3.84-5.73 c-0.45-2.42-4.05-2.66-6-2.93c-1.34-0.19-2.68-0.26-4.03-0.24C8.93-7.54,6.7-6.89,6.38-8.33z"></path>
<animateTransform attributeName="transform" type="rotate" dur="0.8130081300813008s" repeatCount="indefinite" keyTimes="0;0.5;1" calcMode="spline" keySplines="0.4 0 0.6 1;0.4 0 0.6 1" begin="-0.3436109832796441s" values="-10;10;-10"></animateTransform>
</g>
</g><g transform="translate(285.8105641393082 80.55593214620117) rotate(140.82963508265723) scale(0.17268881012081505)">
<g>
<path fill="#e0d7e8" d="M6.38-8.33C5.84-10.74,5-13.08,3.83-15.26c-0.85-1.58-1.98-4.16-4.16-3.86c-1.93,0.26-3.02,2.91-3.79,4.44 c-0.51,1-0.95,2.03-1.32,3.09c-0.37,1.06-0.47,2.86-1.16,3.72c-0.67,0.83-2.16,0.35-3.08,0.33c-1.36-0.03-2.71,0.04-4.06,0.21 c-1.72,0.22-4.81,0.42-5.85,2.03c-1.25,1.94,0.7,3.8,1.93,5.13c1.68,1.82,3.6,3.27,5.67,4.62c1.14,0.74,1.08,1.25,0.59,2.47 c-0.51,1.28-0.93,2.59-1.25,3.92c-0.44,1.86-1.34,5.14-0.4,6.93c1.16,2.23,3.65,1.11,5.37,0.35c2.37-1.05,4.49-2.47,6.49-4.1 c1.2-0.97,1.67-0.56,2.78,0.35c1.06,0.86,2.17,1.65,3.35,2.35c1.59,0.95,4.49,2.84,6.43,2.36c2.4-0.58,2-3.33,1.8-5.2 c-0.29-2.64-1.16-4.97-1.98-7.47c-0.5-1.54,0.7-1.87,1.83-2.64c1.09-0.73,2.12-1.54,3.09-2.42c1.41-1.28,4.24-3.58,3.84-5.73 c-0.45-2.42-4.05-2.66-6-2.93c-1.34-0.19-2.68-0.26-4.03-0.24C8.93-7.54,6.7-6.89,6.38-8.33z"></path>
<animateTransform attributeName="transform" type="rotate" dur="0.8130081300813008s" repeatCount="indefinite" keyTimes="0;0.5;1" calcMode="spline" keySplines="0.4 0 0.6 1;0.4 0 0.6 1" begin="-0.36815462494247586s" values="-10;10;-10"></animateTransform>
</g>
</g><g transform="translate(1425.5310849327207 680.752162851329) rotate(263.6042703639962) scale(0.1723151337237162)">
<g>
<path fill="#e0d7e8" d="M6.38-8.33C5.84-10.74,5-13.08,3.83-15.26c-0.85-1.58-1.98-4.16-4.16-3.86c-1.93,0.26-3.02,2.91-3.79,4.44 c-0.51,1-0.95,2.03-1.32,3.09c-0.37,1.06-0.47,2.86-1.16,3.72c-0.67,0.83-2.16,0.35-3.08,0.33c-1.36-0.03-2.71,0.04-4.06,0.21 c-1.72,0.22-4.81,0.42-5.85,2.03c-1.25,1.94,0.7,3.8,1.93,5.13c1.68,1.82,3.6,3.27,5.67,4.62c1.14,0.74,1.08,1.25,0.59,2.47 c-0.51,1.28-0.93,2.59-1.25,3.92c-0.44,1.86-1.34,5.14-0.4,6.93c1.16,2.23,3.65,1.11,5.37,0.35c2.37-1.05,4.49-2.47,6.49-4.1 c1.2-0.97,1.67-0.56,2.78,0.35c1.06,0.86,2.17,1.65,3.35,2.35c1.59,0.95,4.49,2.84,6.43,2.36c2.4-0.58,2-3.33,1.8-5.2 c-0.29-2.64-1.16-4.97-1.98-7.47c-0.5-1.54,0.7-1.87,1.83-2.64c1.09-0.73,2.12-1.54,3.09-2.42c1.41-1.28,4.24-3.58,3.84-5.73 c-0.45-2.42-4.05-2.66-6-2.93c-1.34-0.19-2.68-0.26-4.03-0.24C8.93-7.54,6.7-6.89,6.38-8.33z"></path>
<animateTransform attributeName="transform" type="rotate" dur="0.8130081300813008s" repeatCount="indefinite" keyTimes="0;0.5;1" calcMode="spline" keySplines="0.4 0 0.6 1;0.4 0 0.6 1" begin="-0.39269826660530754s" values="-10;10;-10"></animateTransform>
</g>
</g><g transform="translate(1856.9345837420194 819.2394266150167) rotate(261.5963428047981) scale(0.16094124419243644)">
<g>
<path fill="#e0d7e8" d="M6.38-8.33C5.84-10.74,5-13.08,3.83-15.26c-0.85-1.58-1.98-4.16-4.16-3.86c-1.93,0.26-3.02,2.91-3.79,4.44 c-0.51,1-0.95,2.03-1.32,3.09c-0.37,1.06-0.47,2.86-1.16,3.72c-0.67,0.83-2.16,0.35-3.08,0.33c-1.36-0.03-2.71,0.04-4.06,0.21 c-1.72,0.22-4.81,0.42-5.85,2.03c-1.25,1.94,0.7,3.8,1.93,5.13c1.68,1.82,3.6,3.27,5.67,4.62c1.14,0.74,1.08,1.25,0.59,2.47 c-0.51,1.28-0.93,2.59-1.25,3.92c-0.44,1.86-1.34,5.14-0.4,6.93c1.16,2.23,3.65,1.11,5.37,0.35c2.37-1.05,4.49-2.47,6.49-4.1 c1.2-0.97,1.67-0.56,2.78,0.35c1.06,0.86,2.17,1.65,3.35,2.35c1.59,0.95,4.49,2.84,6.43,2.36c2.4-0.58,2-3.33,1.8-5.2 c-0.29-2.64-1.16-4.97-1.98-7.47c-0.5-1.54,0.7-1.87,1.83-2.64c1.09-0.73,2.12-1.54,3.09-2.42c1.41-1.28,4.24-3.58,3.84-5.73 c-0.45-2.42-4.05-2.66-6-2.93c-1.34-0.19-2.68-0.26-4.03-0.24C8.93-7.54,6.7-6.89,6.38-8.33z"></path>
<animateTransform attributeName="transform" type="rotate" dur="0.8130081300813008s" repeatCount="indefinite" keyTimes="0;0.5;1" calcMode="spline" keySplines="0.4 0 0.6 1;0.4 0 0.6 1" begin="-0.4172419082681393s" values="-10;10;-10"></animateTransform>
</g>
</g><g transform="translate(1022.8574343351048 681.189340771028) rotate(16.789736084990558) scale(0.17740649190341093)">
<g>
<path fill="#8b7a98" d="M6.38-8.33C5.84-10.74,5-13.08,3.83-15.26c-0.85-1.58-1.98-4.16-4.16-3.86c-1.93,0.26-3.02,2.91-3.79,4.44 c-0.51,1-0.95,2.03-1.32,3.09c-0.37,1.06-0.47,2.86-1.16,3.72c-0.67,0.83-2.16,0.35-3.08,0.33c-1.36-0.03-2.71,0.04-4.06,0.21 c-1.72,0.22-4.81,0.42-5.85,2.03c-1.25,1.94,0.7,3.8,1.93,5.13c1.68,1.82,3.6,3.27,5.67,4.62c1.14,0.74,1.08,1.25,0.59,2.47 c-0.51,1.28-0.93,2.59-1.25,3.92c-0.44,1.86-1.34,5.14-0.4,6.93c1.16,2.23,3.65,1.11,5.37,0.35c2.37-1.05,4.49-2.47,6.49-4.1 c1.2-0.97,1.67-0.56,2.78,0.35c1.06,0.86,2.17,1.65,3.35,2.35c1.59,0.95,4.49,2.84,6.43,2.36c2.4-0.58,2-3.33,1.8-5.2 c-0.29-2.64-1.16-4.97-1.98-7.47c-0.5-1.54,0.7-1.87,1.83-2.64c1.09-0.73,2.12-1.54,3.09-2.42c1.41-1.28,4.24-3.58,3.84-5.73 c-0.45-2.42-4.05-2.66-6-2.93c-1.34-0.19-2.68-0.26-4.03-0.24C8.93-7.54,6.7-6.89,6.38-8.33z"></path>
<animateTransform attributeName="transform" type="rotate" dur="0.8130081300813008s" repeatCount="indefinite" keyTimes="0;0.5;1" calcMode="spline" keySplines="0.4 0 0.6 1;0.4 0 0.6 1" begin="-0.44178554993097097s" values="-10;10;-10"></animateTransform>
</g>
</g><g transform="translate(1558.5459131536338 211.7834556203144) rotate(7.4205746597886435) scale(0.17128900697472607)">
<g>
<path fill="#e0d7e8" d="M6.38-8.33C5.84-10.74,5-13.08,3.83-15.26c-0.85-1.58-1.98-4.16-4.16-3.86c-1.93,0.26-3.02,2.91-3.79,4.44 c-0.51,1-0.95,2.03-1.32,3.09c-0.37,1.06-0.47,2.86-1.16,3.72c-0.67,0.83-2.16,0.35-3.08,0.33c-1.36-0.03-2.71,0.04-4.06,0.21 c-1.72,0.22-4.81,0.42-5.85,2.03c-1.25,1.94,0.7,3.8,1.93,5.13c1.68,1.82,3.6,3.27,5.67,4.62c1.14,0.74,1.08,1.25,0.59,2.47 c-0.51,1.28-0.93,2.59-1.25,3.92c-0.44,1.86-1.34,5.14-0.4,6.93c1.16,2.23,3.65,1.11,5.37,0.35c2.37-1.05,4.49-2.47,6.49-4.1 c1.2-0.97,1.67-0.56,2.78,0.35c1.06,0.86,2.17,1.65,3.35,2.35c1.59,0.95,4.49,2.84,6.43,2.36c2.4-0.58,2-3.33,1.8-5.2 c-0.29-2.64-1.16-4.97-1.98-7.47c-0.5-1.54,0.7-1.87,1.83-2.64c1.09-0.73,2.12-1.54,3.09-2.42c1.41-1.28,4.24-3.58,3.84-5.73 c-0.45-2.42-4.05-2.66-6-2.93c-1.34-0.19-2.68-0.26-4.03-0.24C8.93-7.54,6.7-6.89,6.38-8.33z"></path>
<animateTransform attributeName="transform" type="rotate" dur="0.8130081300813008s" repeatCount="indefinite" keyTimes="0;0.5;1" calcMode="spline" keySplines="0.4 0 0.6 1;0.4 0 0.6 1" begin="-0.46632919159380276s" values="-10;10;-10"></animateTransform>
</g>
</g><g transform="translate(448.77616374514537 355.51376693020154) rotate(190.30401242139763) scale(0.129530746509568)">
<g>
<path fill="#8b7a98" d="M6.38-8.33C5.84-10.74,5-13.08,3.83-15.26c-0.85-1.58-1.98-4.16-4.16-3.86c-1.93,0.26-3.02,2.91-3.79,4.44 c-0.51,1-0.95,2.03-1.32,3.09c-0.37,1.06-0.47,2.86-1.16,3.72c-0.67,0.83-2.16,0.35-3.08,0.33c-1.36-0.03-2.71,0.04-4.06,0.21 c-1.72,0.22-4.81,0.42-5.85,2.03c-1.25,1.94,0.7,3.8,1.93,5.13c1.68,1.82,3.6,3.27,5.67,4.62c1.14,0.74,1.08,1.25,0.59,2.47 c-0.51,1.28-0.93,2.59-1.25,3.92c-0.44,1.86-1.34,5.14-0.4,6.93c1.16,2.23,3.65,1.11,5.37,0.35c2.37-1.05,4.49-2.47,6.49-4.1 c1.2-0.97,1.67-0.56,2.78,0.35c1.06,0.86,2.17,1.65,3.35,2.35c1.59,0.95,4.49,2.84,6.43,2.36c2.4-0.58,2-3.33,1.8-5.2 c-0.29-2.64-1.16-4.97-1.98-7.47c-0.5-1.54,0.7-1.87,1.83-2.64c1.09-0.73,2.12-1.54,3.09-2.42c1.41-1.28,4.24-3.58,3.84-5.73 c-0.45-2.42-4.05-2.66-6-2.93c-1.34-0.19-2.68-0.26-4.03-0.24C8.93-7.54,6.7-6.89,6.38-8.33z"></path>
<animateTransform attributeName="transform" type="rotate" dur="0.8130081300813008s" repeatCount="indefinite" keyTimes="0;0.5;1" calcMode="spline" keySplines="0.4 0 0.6 1;0.4 0 0.6 1" begin="-0.4908728332566344s" values="-10;10;-10"></animateTransform>
</g>
</g><g transform="translate(1661.1761329678939 807.7810386256226) rotate(190.2418972061693) scale(0.1489022837364357)">
<g>
<path fill="#e0d7e8" d="M6.38-8.33C5.84-10.74,5-13.08,3.83-15.26c-0.85-1.58-1.98-4.16-4.16-3.86c-1.93,0.26-3.02,2.91-3.79,4.44 c-0.51,1-0.95,2.03-1.32,3.09c-0.37,1.06-0.47,2.86-1.16,3.72c-0.67,0.83-2.16,0.35-3.08,0.33c-1.36-0.03-2.71,0.04-4.06,0.21 c-1.72,0.22-4.81,0.42-5.85,2.03c-1.25,1.94,0.7,3.8,1.93,5.13c1.68,1.82,3.6,3.27,5.67,4.62c1.14,0.74,1.08,1.25,0.59,2.47 c-0.51,1.28-0.93,2.59-1.25,3.92c-0.44,1.86-1.34,5.14-0.4,6.93c1.16,2.23,3.65,1.11,5.37,0.35c2.37-1.05,4.49-2.47,6.49-4.1 c1.2-0.97,1.67-0.56,2.78,0.35c1.06,0.86,2.17,1.65,3.35,2.35c1.59,0.95,4.49,2.84,6.43,2.36c2.4-0.58,2-3.33,1.8-5.2 c-0.29-2.64-1.16-4.97-1.98-7.47c-0.5-1.54,0.7-1.87,1.83-2.64c1.09-0.73,2.12-1.54,3.09-2.42c1.41-1.28,4.24-3.58,3.84-5.73 c-0.45-2.42-4.05-2.66-6-2.93c-1.34-0.19-2.68-0.26-4.03-0.24C8.93-7.54,6.7-6.89,6.38-8.33z"></path>
<animateTransform attributeName="transform" type="rotate" dur="0.8130081300813008s" repeatCount="indefinite" keyTimes="0;0.5;1" calcMode="spline" keySplines="0.4 0 0.6 1;0.4 0 0.6 1" begin="-0.5154164749194662s" values="-10;10;-10"></animateTransform>
</g>
</g><g transform="translate(414.5424320780702 557.354270545195) rotate(86.30965049521845) scale(0.14374855615187201)">
<g>
<path fill="#8b7a98" d="M6.38-8.33C5.84-10.74,5-13.08,3.83-15.26c-0.85-1.58-1.98-4.16-4.16-3.86c-1.93,0.26-3.02,2.91-3.79,4.44 c-0.51,1-0.95,2.03-1.32,3.09c-0.37,1.06-0.47,2.86-1.16,3.72c-0.67,0.83-2.16,0.35-3.08,0.33c-1.36-0.03-2.71,0.04-4.06,0.21 c-1.72,0.22-4.81,0.42-5.85,2.03c-1.25,1.94,0.7,3.8,1.93,5.13c1.68,1.82,3.6,3.27,5.67,4.62c1.14,0.74,1.08,1.25,0.59,2.47 c-0.51,1.28-0.93,2.59-1.25,3.92c-0.44,1.86-1.34,5.14-0.4,6.93c1.16,2.23,3.65,1.11,5.37,0.35c2.37-1.05,4.49-2.47,6.49-4.1 c1.2-0.97,1.67-0.56,2.78,0.35c1.06,0.86,2.17,1.65,3.35,2.35c1.59,0.95,4.49,2.84,6.43,2.36c2.4-0.58,2-3.33,1.8-5.2 c-0.29-2.64-1.16-4.97-1.98-7.47c-0.5-1.54,0.7-1.87,1.83-2.64c1.09-0.73,2.12-1.54,3.09-2.42c1.41-1.28,4.24-3.58,3.84-5.73 c-0.45-2.42-4.05-2.66-6-2.93c-1.34-0.19-2.68-0.26-4.03-0.24C8.93-7.54,6.7-6.89,6.38-8.33z"></path>
<animateTransform attributeName="transform" type="rotate" dur="0.8130081300813008s" repeatCount="indefinite" keyTimes="0;0.5;1" calcMode="spline" keySplines="0.4 0 0.6 1;0.4 0 0.6 1" begin="-0.5399601165822979s" values="-10;10;-10"></animateTransform>
</g>
</g><g transform="translate(1330.0197433077867 189.16238412133114) rotate(125.98299337443022) scale(0.15952986422488705)">
<g>
<path fill="#e0d7e8" d="M6.38-8.33C5.84-10.74,5-13.08,3.83-15.26c-0.85-1.58-1.98-4.16-4.16-3.86c-1.93,0.26-3.02,2.91-3.79,4.44 c-0.51,1-0.95,2.03-1.32,3.09c-0.37,1.06-0.47,2.86-1.16,3.72c-0.67,0.83-2.16,0.35-3.08,0.33c-1.36-0.03-2.71,0.04-4.06,0.21 c-1.72,0.22-4.81,0.42-5.85,2.03c-1.25,1.94,0.7,3.8,1.93,5.13c1.68,1.82,3.6,3.27,5.67,4.62c1.14,0.74,1.08,1.25,0.59,2.47 c-0.51,1.28-0.93,2.59-1.25,3.92c-0.44,1.86-1.34,5.14-0.4,6.93c1.16,2.23,3.65,1.11,5.37,0.35c2.37-1.05,4.49-2.47,6.49-4.1 c1.2-0.97,1.67-0.56,2.78,0.35c1.06,0.86,2.17,1.65,3.35,2.35c1.59,0.95,4.49,2.84,6.43,2.36c2.4-0.58,2-3.33,1.8-5.2 c-0.29-2.64-1.16-4.97-1.98-7.47c-0.5-1.54,0.7-1.87,1.83-2.64c1.09-0.73,2.12-1.54,3.09-2.42c1.41-1.28,4.24-3.58,3.84-5.73 c-0.45-2.42-4.05-2.66-6-2.93c-1.34-0.19-2.68-0.26-4.03-0.24C8.93-7.54,6.7-6.89,6.38-8.33z"></path>
<animateTransform attributeName="transform" type="rotate" dur="0.8130081300813008s" repeatCount="indefinite" keyTimes="0;0.5;1" calcMode="spline" keySplines="0.4 0 0.6 1;0.4 0 0.6 1" begin="-0.5645037582451297s" values="-10;10;-10"></animateTransform>
</g>
</g><g transform="translate(1183.5848101719369 715.3787470587098) rotate(104.6160828812815) scale(0.1274720615034251)">
<g>
<path fill="#e0d7e8" d="M6.38-8.33C5.84-10.74,5-13.08,3.83-15.26c-0.85-1.58-1.98-4.16-4.16-3.86c-1.93,0.26-3.02,2.91-3.79,4.44 c-0.51,1-0.95,2.03-1.32,3.09c-0.37,1.06-0.47,2.86-1.16,3.72c-0.67,0.83-2.16,0.35-3.08,0.33c-1.36-0.03-2.71,0.04-4.06,0.21 c-1.72,0.22-4.81,0.42-5.85,2.03c-1.25,1.94,0.7,3.8,1.93,5.13c1.68,1.82,3.6,3.27,5.67,4.62c1.14,0.74,1.08,1.25,0.59,2.47 c-0.51,1.28-0.93,2.59-1.25,3.92c-0.44,1.86-1.34,5.14-0.4,6.93c1.16,2.23,3.65,1.11,5.37,0.35c2.37-1.05,4.49-2.47,6.49-4.1 c1.2-0.97,1.67-0.56,2.78,0.35c1.06,0.86,2.17,1.65,3.35,2.35c1.59,0.95,4.49,2.84,6.43,2.36c2.4-0.58,2-3.33,1.8-5.2 c-0.29-2.64-1.16-4.97-1.98-7.47c-0.5-1.54,0.7-1.87,1.83-2.64c1.09-0.73,2.12-1.54,3.09-2.42c1.41-1.28,4.24-3.58,3.84-5.73 c-0.45-2.42-4.05-2.66-6-2.93c-1.34-0.19-2.68-0.26-4.03-0.24C8.93-7.54,6.7-6.89,6.38-8.33z"></path>
<animateTransform attributeName="transform" type="rotate" dur="0.8130081300813008s" repeatCount="indefinite" keyTimes="0;0.5;1" calcMode="spline" keySplines="0.4 0 0.6 1;0.4 0 0.6 1" begin="-0.5890473999079613s" values="-10;10;-10"></animateTransform>
</g>
</g><g transform="translate(1122.4198529376545 58.87153960698773) rotate(254.2263441760162) scale(0.13215229893616404)">
<g>
<path fill="#e0d7e8" d="M6.38-8.33C5.84-10.74,5-13.08,3.83-15.26c-0.85-1.58-1.98-4.16-4.16-3.86c-1.93,0.26-3.02,2.91-3.79,4.44 c-0.51,1-0.95,2.03-1.32,3.09c-0.37,1.06-0.47,2.86-1.16,3.72c-0.67,0.83-2.16,0.35-3.08,0.33c-1.36-0.03-2.71,0.04-4.06,0.21 c-1.72,0.22-4.81,0.42-5.85,2.03c-1.25,1.94,0.7,3.8,1.93,5.13c1.68,1.82,3.6,3.27,5.67,4.62c1.14,0.74,1.08,1.25,0.59,2.47 c-0.51,1.28-0.93,2.59-1.25,3.92c-0.44,1.86-1.34,5.14-0.4,6.93c1.16,2.23,3.65,1.11,5.37,0.35c2.37-1.05,4.49-2.47,6.49-4.1 c1.2-0.97,1.67-0.56,2.78,0.35c1.06,0.86,2.17,1.65,3.35,2.35c1.59,0.95,4.49,2.84,6.43,2.36c2.4-0.58,2-3.33,1.8-5.2 c-0.29-2.64-1.16-4.97-1.98-7.47c-0.5-1.54,0.7-1.87,1.83-2.64c1.09-0.73,2.12-1.54,3.09-2.42c1.41-1.28,4.24-3.58,3.84-5.73 c-0.45-2.42-4.05-2.66-6-2.93c-1.34-0.19-2.68-0.26-4.03-0.24C8.93-7.54,6.7-6.89,6.38-8.33z"></path>
<animateTransform attributeName="transform" type="rotate" dur="0.8130081300813008s" repeatCount="indefinite" keyTimes="0;0.5;1" calcMode="spline" keySplines="0.4 0 0.6 1;0.4 0 0.6 1" begin="-0.613591041570793s" values="-10;10;-10"></animateTransform>
</g>
</g><g transform="translate(1659.3161979060217 560.6505888406944) rotate(287.52514687039906) scale(0.15434067810115906)">
<g>
<path fill="#e0d7e8" d="M6.38-8.33C5.84-10.74,5-13.08,3.83-15.26c-0.85-1.58-1.98-4.16-4.16-3.86c-1.93,0.26-3.02,2.91-3.79,4.44 c-0.51,1-0.95,2.03-1.32,3.09c-0.37,1.06-0.47,2.86-1.16,3.72c-0.67,0.83-2.16,0.35-3.08,0.33c-1.36-0.03-2.71,0.04-4.06,0.21 c-1.72,0.22-4.81,0.42-5.85,2.03c-1.25,1.94,0.7,3.8,1.93,5.13c1.68,1.82,3.6,3.27,5.67,4.62c1.14,0.74,1.08,1.25,0.59,2.47 c-0.51,1.28-0.93,2.59-1.25,3.92c-0.44,1.86-1.34,5.14-0.4,6.93c1.16,2.23,3.65,1.11,5.37,0.35c2.37-1.05,4.49-2.47,6.49-4.1 c1.2-0.97,1.67-0.56,2.78,0.35c1.06,0.86,2.17,1.65,3.35,2.35c1.59,0.95,4.49,2.84,6.43,2.36c2.4-0.58,2-3.33,1.8-5.2 c-0.29-2.64-1.16-4.97-1.98-7.47c-0.5-1.54,0.7-1.87,1.83-2.64c1.09-0.73,2.12-1.54,3.09-2.42c1.41-1.28,4.24-3.58,3.84-5.73 c-0.45-2.42-4.05-2.66-6-2.93c-1.34-0.19-2.68-0.26-4.03-0.24C8.93-7.54,6.7-6.89,6.38-8.33z"></path>
<animateTransform attributeName="transform" type="rotate" dur="0.8130081300813008s" repeatCount="indefinite" keyTimes="0;0.5;1" calcMode="spline" keySplines="0.4 0 0.6 1;0.4 0 0.6 1" begin="-0.6381346832336248s" values="-10;10;-10"></animateTransform>
</g>
</g><g transform="translate(1015.67000084816 954.3199202096331) rotate(79.78358654256601) scale(0.14360418777509673)">
<g>
<path fill="#8b7a98" d="M6.38-8.33C5.84-10.74,5-13.08,3.83-15.26c-0.85-1.58-1.98-4.16-4.16-3.86c-1.93,0.26-3.02,2.91-3.79,4.44 c-0.51,1-0.95,2.03-1.32,3.09c-0.37,1.06-0.47,2.86-1.16,3.72c-0.67,0.83-2.16,0.35-3.08,0.33c-1.36-0.03-2.71,0.04-4.06,0.21 c-1.72,0.22-4.81,0.42-5.85,2.03c-1.25,1.94,0.7,3.8,1.93,5.13c1.68,1.82,3.6,3.27,5.67,4.62c1.14,0.74,1.08,1.25,0.59,2.47 c-0.51,1.28-0.93,2.59-1.25,3.92c-0.44,1.86-1.34,5.14-0.4,6.93c1.16,2.23,3.65,1.11,5.37,0.35c2.37-1.05,4.49-2.47,6.49-4.1 c1.2-0.97,1.67-0.56,2.78,0.35c1.06,0.86,2.17,1.65,3.35,2.35c1.59,0.95,4.49,2.84,6.43,2.36c2.4-0.58,2-3.33,1.8-5.2 c-0.29-2.64-1.16-4.97-1.98-7.47c-0.5-1.54,0.7-1.87,1.83-2.64c1.09-0.73,2.12-1.54,3.09-2.42c1.41-1.28,4.24-3.58,3.84-5.73 c-0.45-2.42-4.05-2.66-6-2.93c-1.34-0.19-2.68-0.26-4.03-0.24C8.93-7.54,6.7-6.89,6.38-8.33z"></path>
<animateTransform attributeName="transform" type="rotate" dur="0.8130081300813008s" repeatCount="indefinite" keyTimes="0;0.5;1" calcMode="spline" keySplines="0.4 0 0.6 1;0.4 0 0.6 1" begin="-0.6626783248964565s" values="-10;10;-10"></animateTransform>
</g>
</g><g transform="translate(1734.4872875445283 938.984371723835) rotate(158.21155283610452) scale(0.1543107755105724)">
<g>
<path fill="#e0d7e8" d="M6.38-8.33C5.84-10.74,5-13.08,3.83-15.26c-0.85-1.58-1.98-4.16-4.16-3.86c-1.93,0.26-3.02,2.91-3.79,4.44 c-0.51,1-0.95,2.03-1.32,3.09c-0.37,1.06-0.47,2.86-1.16,3.72c-0.67,0.83-2.16,0.35-3.08,0.33c-1.36-0.03-2.71,0.04-4.06,0.21 c-1.72,0.22-4.81,0.42-5.85,2.03c-1.25,1.94,0.7,3.8,1.93,5.13c1.68,1.82,3.6,3.27,5.67,4.62c1.14,0.74,1.08,1.25,0.59,2.47 c-0.51,1.28-0.93,2.59-1.25,3.92c-0.44,1.86-1.34,5.14-0.4,6.93c1.16,2.23,3.65,1.11,5.37,0.35c2.37-1.05,4.49-2.47,6.49-4.1 c1.2-0.97,1.67-0.56,2.78,0.35c1.06,0.86,2.17,1.65,3.35,2.35c1.59,0.95,4.49,2.84,6.43,2.36c2.4-0.58,2-3.33,1.8-5.2 c-0.29-2.64-1.16-4.97-1.98-7.47c-0.5-1.54,0.7-1.87,1.83-2.64c1.09-0.73,2.12-1.54,3.09-2.42c1.41-1.28,4.24-3.58,3.84-5.73 c-0.45-2.42-4.05-2.66-6-2.93c-1.34-0.19-2.68-0.26-4.03-0.24C8.93-7.54,6.7-6.89,6.38-8.33z"></path>
<animateTransform attributeName="transform" type="rotate" dur="0.8130081300813008s" repeatCount="indefinite" keyTimes="0;0.5;1" calcMode="spline" keySplines="0.4 0 0.6 1;0.4 0 0.6 1" begin="-0.6872219665592882s" values="-10;10;-10"></animateTransform>
</g>
</g><g transform="translate(1564.3023239424067 847.3795056794839) rotate(135.50117899885288) scale(0.13867904520065918)">
<g>
<path fill="#e0d7e8" d="M6.38-8.33C5.84-10.74,5-13.08,3.83-15.26c-0.85-1.58-1.98-4.16-4.16-3.86c-1.93,0.26-3.02,2.91-3.79,4.44 c-0.51,1-0.95,2.03-1.32,3.09c-0.37,1.06-0.47,2.86-1.16,3.72c-0.67,0.83-2.16,0.35-3.08,0.33c-1.36-0.03-2.71,0.04-4.06,0.21 c-1.72,0.22-4.81,0.42-5.85,2.03c-1.25,1.94,0.7,3.8,1.93,5.13c1.68,1.82,3.6,3.27,5.67,4.62c1.14,0.74,1.08,1.25,0.59,2.47 c-0.51,1.28-0.93,2.59-1.25,3.92c-0.44,1.86-1.34,5.14-0.4,6.93c1.16,2.23,3.65,1.11,5.37,0.35c2.37-1.05,4.49-2.47,6.49-4.1 c1.2-0.97,1.67-0.56,2.78,0.35c1.06,0.86,2.17,1.65,3.35,2.35c1.59,0.95,4.49,2.84,6.43,2.36c2.4-0.58,2-3.33,1.8-5.2 c-0.29-2.64-1.16-4.97-1.98-7.47c-0.5-1.54,0.7-1.87,1.83-2.64c1.09-0.73,2.12-1.54,3.09-2.42c1.41-1.28,4.24-3.58,3.84-5.73 c-0.45-2.42-4.05-2.66-6-2.93c-1.34-0.19-2.68-0.26-4.03-0.24C8.93-7.54,6.7-6.89,6.38-8.33z"></path>
<animateTransform attributeName="transform" type="rotate" dur="0.8130081300813008s" repeatCount="indefinite" keyTimes="0;0.5;1" calcMode="spline" keySplines="0.4 0 0.6 1;0.4 0 0.6 1" begin="-0.71176560822212s" values="-10;10;-10"></animateTransform>
</g>
</g><g transform="translate(21.18363639362842 810.5836748454208) rotate(101.73385236524707) scale(0.1487371939668263)">
<g>
<path fill="#8b7a98" d="M6.38-8.33C5.84-10.74,5-13.08,3.83-15.26c-0.85-1.58-1.98-4.16-4.16-3.86c-1.93,0.26-3.02,2.91-3.79,4.44 c-0.51,1-0.95,2.03-1.32,3.09c-0.37,1.06-0.47,2.86-1.16,3.72c-0.67,0.83-2.16,0.35-3.08,0.33c-1.36-0.03-2.71,0.04-4.06,0.21 c-1.72,0.22-4.81,0.42-5.85,2.03c-1.25,1.94,0.7,3.8,1.93,5.13c1.68,1.82,3.6,3.27,5.67,4.62c1.14,0.74,1.08,1.25,0.59,2.47 c-0.51,1.28-0.93,2.59-1.25,3.92c-0.44,1.86-1.34,5.14-0.4,6.93c1.16,2.23,3.65,1.11,5.37,0.35c2.37-1.05,4.49-2.47,6.49-4.1 c1.2-0.97,1.67-0.56,2.78,0.35c1.06,0.86,2.17,1.65,3.35,2.35c1.59,0.95,4.49,2.84,6.43,2.36c2.4-0.58,2-3.33,1.8-5.2 c-0.29-2.64-1.16-4.97-1.98-7.47c-0.5-1.54,0.7-1.87,1.83-2.64c1.09-0.73,2.12-1.54,3.09-2.42c1.41-1.28,4.24-3.58,3.84-5.73 c-0.45-2.42-4.05-2.66-6-2.93c-1.34-0.19-2.68-0.26-4.03-0.24C8.93-7.54,6.7-6.89,6.38-8.33z"></path>
<animateTransform attributeName="transform" type="rotate" dur="0.8130081300813008s" repeatCount="indefinite" keyTimes="0;0.5;1" calcMode="spline" keySplines="0.4 0 0.6 1;0.4 0 0.6 1" begin="-0.7363092498849517s" values="-10;10;-10"></animateTransform>
</g>
</g><g transform="translate(95.72874605364885 414.7297966594989) rotate(14.438198645194076) scale(0.15847701612660395)">
<g>
<path fill="#e0d7e8" d="M6.38-8.33C5.84-10.74,5-13.08,3.83-15.26c-0.85-1.58-1.98-4.16-4.16-3.86c-1.93,0.26-3.02,2.91-3.79,4.44 c-0.51,1-0.95,2.03-1.32,3.09c-0.37,1.06-0.47,2.86-1.16,3.72c-0.67,0.83-2.16,0.35-3.08,0.33c-1.36-0.03-2.71,0.04-4.06,0.21 c-1.72,0.22-4.81,0.42-5.85,2.03c-1.25,1.94,0.7,3.8,1.93,5.13c1.68,1.82,3.6,3.27,5.67,4.62c1.14,0.74,1.08,1.25,0.59,2.47 c-0.51,1.28-0.93,2.59-1.25,3.92c-0.44,1.86-1.34,5.14-0.4,6.93c1.16,2.23,3.65,1.11,5.37,0.35c2.37-1.05,4.49-2.47,6.49-4.1 c1.2-0.97,1.67-0.56,2.78,0.35c1.06,0.86,2.17,1.65,3.35,2.35c1.59,0.95,4.49,2.84,6.43,2.36c2.4-0.58,2-3.33,1.8-5.2 c-0.29-2.64-1.16-4.97-1.98-7.47c-0.5-1.54,0.7-1.87,1.83-2.64c1.09-0.73,2.12-1.54,3.09-2.42c1.41-1.28,4.24-3.58,3.84-5.73 c-0.45-2.42-4.05-2.66-6-2.93c-1.34-0.19-2.68-0.26-4.03-0.24C8.93-7.54,6.7-6.89,6.38-8.33z"></path>
<animateTransform attributeName="transform" type="rotate" dur="0.8130081300813008s" repeatCount="indefinite" keyTimes="0;0.5;1" calcMode="spline" keySplines="0.4 0 0.6 1;0.4 0 0.6 1" begin="-0.7608528915477833s" values="-10;10;-10"></animateTransform>
</g>
</g><g transform="translate(901.0561958103829 509.96452572514283) rotate(42.063428468433315) scale(0.1224285766209903)">
<g>
<path fill="#e0d7e8" d="M6.38-8.33C5.84-10.74,5-13.08,3.83-15.26c-0.85-1.58-1.98-4.16-4.16-3.86c-1.93,0.26-3.02,2.91-3.79,4.44 c-0.51,1-0.95,2.03-1.32,3.09c-0.37,1.06-0.47,2.86-1.16,3.72c-0.67,0.83-2.16,0.35-3.08,0.33c-1.36-0.03-2.71,0.04-4.06,0.21 c-1.72,0.22-4.81,0.42-5.85,2.03c-1.25,1.94,0.7,3.8,1.93,5.13c1.68,1.82,3.6,3.27,5.67,4.62c1.14,0.74,1.08,1.25,0.59,2.47 c-0.51,1.28-0.93,2.59-1.25,3.92c-0.44,1.86-1.34,5.14-0.4,6.93c1.16,2.23,3.65,1.11,5.37,0.35c2.37-1.05,4.49-2.47,6.49-4.1 c1.2-0.97,1.67-0.56,2.78,0.35c1.06,0.86,2.17,1.65,3.35,2.35c1.59,0.95,4.49,2.84,6.43,2.36c2.4-0.58,2-3.33,1.8-5.2 c-0.29-2.64-1.16-4.97-1.98-7.47c-0.5-1.54,0.7-1.87,1.83-2.64c1.09-0.73,2.12-1.54,3.09-2.42c1.41-1.28,4.24-3.58,3.84-5.73 c-0.45-2.42-4.05-2.66-6-2.93c-1.34-0.19-2.68-0.26-4.03-0.24C8.93-7.54,6.7-6.89,6.38-8.33z"></path>
<animateTransform attributeName="transform" type="rotate" dur="0.8130081300813008s" repeatCount="indefinite" keyTimes="0;0.5;1" calcMode="spline" keySplines="0.4 0 0.6 1;0.4 0 0.6 1" begin="-0.7853965332106151s" values="-10;10;-10"></animateTransform>
</g>
</g><g transform="translate(1257.284214717087 779.428249773798) rotate(147.61247921728278) scale(0.14533494349736678)">
<g>
<path fill="#8b7a98" d="M6.38-8.33C5.84-10.74,5-13.08,3.83-15.26c-0.85-1.58-1.98-4.16-4.16-3.86c-1.93,0.26-3.02,2.91-3.79,4.44 c-0.51,1-0.95,2.03-1.32,3.09c-0.37,1.06-0.47,2.86-1.16,3.72c-0.67,0.83-2.16,0.35-3.08,0.33c-1.36-0.03-2.71,0.04-4.06,0.21 c-1.72,0.22-4.81,0.42-5.85,2.03c-1.25,1.94,0.7,3.8,1.93,5.13c1.68,1.82,3.6,3.27,5.67,4.62c1.14,0.74,1.08,1.25,0.59,2.47 c-0.51,1.28-0.93,2.59-1.25,3.92c-0.44,1.86-1.34,5.14-0.4,6.93c1.16,2.23,3.65,1.11,5.37,0.35c2.37-1.05,4.49-2.47,6.49-4.1 c1.2-0.97,1.67-0.56,2.78,0.35c1.06,0.86,2.17,1.65,3.35,2.35c1.59,0.95,4.49,2.84,6.43,2.36c2.4-0.58,2-3.33,1.8-5.2 c-0.29-2.64-1.16-4.97-1.98-7.47c-0.5-1.54,0.7-1.87,1.83-2.64c1.09-0.73,2.12-1.54,3.09-2.42c1.41-1.28,4.24-3.58,3.84-5.73 c-0.45-2.42-4.05-2.66-6-2.93c-1.34-0.19-2.68-0.26-4.03-0.24C8.93-7.54,6.7-6.89,6.38-8.33z"></path>
<animateTransform attributeName="transform" type="rotate" dur="0.8130081300813008s" repeatCount="indefinite" keyTimes="0;0.5;1" calcMode="spline" keySplines="0.4 0 0.6 1;0.4 0 0.6 1" begin="-0.8099401748734468s" values="-10;10;-10"></animateTransform>
</g>
</g><g transform="translate(906.3912402574251 863.1733312168624) rotate(298.3596306908043) scale(0.17369947555492454)">
<g>
<path fill="#8b7a98" d="M6.38-8.33C5.84-10.74,5-13.08,3.83-15.26c-0.85-1.58-1.98-4.16-4.16-3.86c-1.93,0.26-3.02,2.91-3.79,4.44 c-0.51,1-0.95,2.03-1.32,3.09c-0.37,1.06-0.47,2.86-1.16,3.72c-0.67,0.83-2.16,0.35-3.08,0.33c-1.36-0.03-2.71,0.04-4.06,0.21 c-1.72,0.22-4.81,0.42-5.85,2.03c-1.25,1.94,0.7,3.8,1.93,5.13c1.68,1.82,3.6,3.27,5.67,4.62c1.14,0.74,1.08,1.25,0.59,2.47 c-0.51,1.28-0.93,2.59-1.25,3.92c-0.44,1.86-1.34,5.14-0.4,6.93c1.16,2.23,3.65,1.11,5.37,0.35c2.37-1.05,4.49-2.47,6.49-4.1 c1.2-0.97,1.67-0.56,2.78,0.35c1.06,0.86,2.17,1.65,3.35,2.35c1.59,0.95,4.49,2.84,6.43,2.36c2.4-0.58,2-3.33,1.8-5.2 c-0.29-2.64-1.16-4.97-1.98-7.47c-0.5-1.54,0.7-1.87,1.83-2.64c1.09-0.73,2.12-1.54,3.09-2.42c1.41-1.28,4.24-3.58,3.84-5.73 c-0.45-2.42-4.05-2.66-6-2.93c-1.34-0.19-2.68-0.26-4.03-0.24C8.93-7.54,6.7-6.89,6.38-8.33z"></path>
<animateTransform attributeName="transform" type="rotate" dur="0.8130081300813008s" repeatCount="indefinite" keyTimes="0;0.5;1" calcMode="spline" keySplines="0.4 0 0.6 1;0.4 0 0.6 1" begin="-0.8344838165362786s" values="-10;10;-10"></animateTransform>
</g>
</g><g transform="translate(694.4502683267208 582.4176540221885) rotate(88.12058705430908) scale(0.15313842601775102)">
<g>
<path fill="#8b7a98" d="M6.38-8.33C5.84-10.74,5-13.08,3.83-15.26c-0.85-1.58-1.98-4.16-4.16-3.86c-1.93,0.26-3.02,2.91-3.79,4.44 c-0.51,1-0.95,2.03-1.32,3.09c-0.37,1.06-0.47,2.86-1.16,3.72c-0.67,0.83-2.16,0.35-3.08,0.33c-1.36-0.03-2.71,0.04-4.06,0.21 c-1.72,0.22-4.81,0.42-5.85,2.03c-1.25,1.94,0.7,3.8,1.93,5.13c1.68,1.82,3.6,3.27,5.67,4.62c1.14,0.74,1.08,1.25,0.59,2.47 c-0.51,1.28-0.93,2.59-1.25,3.92c-0.44,1.86-1.34,5.14-0.4,6.93c1.16,2.23,3.65,1.11,5.37,0.35c2.37-1.05,4.49-2.47,6.49-4.1 c1.2-0.97,1.67-0.56,2.78,0.35c1.06,0.86,2.17,1.65,3.35,2.35c1.59,0.95,4.49,2.84,6.43,2.36c2.4-0.58,2-3.33,1.8-5.2 c-0.29-2.64-1.16-4.97-1.98-7.47c-0.5-1.54,0.7-1.87,1.83-2.64c1.09-0.73,2.12-1.54,3.09-2.42c1.41-1.28,4.24-3.58,3.84-5.73 c-0.45-2.42-4.05-2.66-6-2.93c-1.34-0.19-2.68-0.26-4.03-0.24C8.93-7.54,6.7-6.89,6.38-8.33z"></path>
<animateTransform attributeName="transform" type="rotate" dur="0.8130081300813008s" repeatCount="indefinite" keyTimes="0;0.5;1" calcMode="spline" keySplines="0.4 0 0.6 1;0.4 0 0.6 1" begin="-0.8590274581991102s" values="-10;10;-10"></animateTransform>
</g>
</g><g transform="translate(350.81823625577005 573.1875729144451) rotate(213.00053212434344) scale(0.16097743481481128)">
<g>
<path fill="#8b7a98" d="M6.38-8.33C5.84-10.74,5-13.08,3.83-15.26c-0.85-1.58-1.98-4.16-4.16-3.86c-1.93,0.26-3.02,2.91-3.79,4.44 c-0.51,1-0.95,2.03-1.32,3.09c-0.37,1.06-0.47,2.86-1.16,3.72c-0.67,0.83-2.16,0.35-3.08,0.33c-1.36-0.03-2.71,0.04-4.06,0.21 c-1.72,0.22-4.81,0.42-5.85,2.03c-1.25,1.94,0.7,3.8,1.93,5.13c1.68,1.82,3.6,3.27,5.67,4.62c1.14,0.74,1.08,1.25,0.59,2.47 c-0.51,1.28-0.93,2.59-1.25,3.92c-0.44,1.86-1.34,5.14-0.4,6.93c1.16,2.23,3.65,1.11,5.37,0.35c2.37-1.05,4.49-2.47,6.49-4.1 c1.2-0.97,1.67-0.56,2.78,0.35c1.06,0.86,2.17,1.65,3.35,2.35c1.59,0.95,4.49,2.84,6.43,2.36c2.4-0.58,2-3.33,1.8-5.2 c-0.29-2.64-1.16-4.97-1.98-7.47c-0.5-1.54,0.7-1.87,1.83-2.64c1.09-0.73,2.12-1.54,3.09-2.42c1.41-1.28,4.24-3.58,3.84-5.73 c-0.45-2.42-4.05-2.66-6-2.93c-1.34-0.19-2.68-0.26-4.03-0.24C8.93-7.54,6.7-6.89,6.38-8.33z"></path>
<animateTransform attributeName="transform" type="rotate" dur="0.8130081300813008s" repeatCount="indefinite" keyTimes="0;0.5;1" calcMode="spline" keySplines="0.4 0 0.6 1;0.4 0 0.6 1" begin="-0.8835710998619419s" values="-10;10;-10"></animateTransform>
</g>
</g><g transform="translate(672.7363732953305 782.6711995321823) rotate(184.01280083947) scale(0.15678015813155677)">
<circle cx="0" cy="0" r="5" fill="#e0d7e8"></circle>
<animate attributeName="opacity" dur="0.8130081300813008s" repeatCount="indefinite" keyTimes="0;0.5;1" calcMode="spline" keySplines="0.2 0 0.8 1;0.2 0 0.8 1" begin="-0.22702868538119345s" values="1;0.5;1"></animate>
</g><g transform="translate(1334.4440858538615 429.4272929712748) rotate(56.61872464955917) scale(0.16616094320075978)">
<circle cx="0" cy="0" r="5" fill="#8b7a98"></circle>
<animate attributeName="opacity" dur="0.8130081300813008s" repeatCount="indefinite" keyTimes="0;0.5;1" calcMode="spline" keySplines="0.2 0 0.8 1;0.2 0 0.8 1" begin="-0.23316459579690138s" values="1;0.5;1"></animate>
</g><g transform="translate(1683.97876842743 336.2054331240077) rotate(187.81077470150385) scale(0.12093614002014565)">
<circle cx="0" cy="0" r="5" fill="#e0d7e8"></circle>
<animate attributeName="opacity" dur="0.8130081300813008s" repeatCount="indefinite" keyTimes="0;0.5;1" calcMode="spline" keySplines="0.2 0 0.8 1;0.2 0 0.8 1" begin="-0.2393005062126093s" values="1;0.5;1"></animate>
</g><g transform="translate(233.3293587163485 770.8379193015165) rotate(47.31291985335025) scale(0.1206211132638895)">
<circle cx="0" cy="0" r="5" fill="#e0d7e8"></circle>
<animate attributeName="opacity" dur="0.8130081300813008s" repeatCount="indefinite" keyTimes="0;0.5;1" calcMode="spline" keySplines="0.2 0 0.8 1;0.2 0 0.8 1" begin="-0.2454364166283172s" values="1;0.5;1"></animate>
</g><g transform="translate(1853.304232490322 441.1845046697121) rotate(219.73871075806255) scale(0.17210169699886843)">
<circle cx="0" cy="0" r="5" fill="#8b7a98"></circle>
<animate attributeName="opacity" dur="0.8130081300813008s" repeatCount="indefinite" keyTimes="0;0.5;1" calcMode="spline" keySplines="0.2 0 0.8 1;0.2 0 0.8 1" begin="-0.25157232704402516s" values="1;0.5;1"></animate>
</g><g transform="translate(639.0394917490347 242.70929679081075) rotate(64.91693528796941) scale(0.14544274101936114)">
<circle cx="0" cy="0" r="5" fill="#e0d7e8"></circle>
<animate attributeName="opacity" dur="0.8130081300813008s" repeatCount="indefinite" keyTimes="0;0.5;1" calcMode="spline" keySplines="0.2 0 0.8 1;0.2 0 0.8 1" begin="-0.2577082374597331s" values="1;0.5;1"></animate>
</g><g transform="translate(1133.2177520387834 730.915096659698) rotate(238.11218041773935) scale(0.12458921294165233)">
<circle cx="0" cy="0" r="5" fill="#e0d7e8"></circle>
<animate attributeName="opacity" dur="0.8130081300813008s" repeatCount="indefinite" keyTimes="0;0.5;1" calcMode="spline" keySplines="0.2 0 0.8 1;0.2 0 0.8 1" begin="-0.263844147875441s" values="1;0.5;1"></animate>
</g><g transform="translate(536.3769133927591 741.6210876128201) rotate(195.73237996321004) scale(0.17533551430285121)">
<circle cx="0" cy="0" r="5" fill="#e0d7e8"></circle>
<animate attributeName="opacity" dur="0.8130081300813008s" repeatCount="indefinite" keyTimes="0;0.5;1" calcMode="spline" keySplines="0.2 0 0.8 1;0.2 0 0.8 1" begin="-0.26998005829114896s" values="1;0.5;1"></animate>
</g><g transform="translate(381.6278513023354 49.36348481620079) rotate(81.9946582253523) scale(0.13110203572090465)">
<circle cx="0" cy="0" r="5" fill="#8b7a98"></circle>
<animate attributeName="opacity" dur="0.8130081300813008s" repeatCount="indefinite" keyTimes="0;0.5;1" calcMode="spline" keySplines="0.2 0 0.8 1;0.2 0 0.8 1" begin="-0.2761159687068569s" values="1;0.5;1"></animate>
</g><g transform="translate(810.4636842147979 416.1247117320305) rotate(16.78170348448381) scale(0.1417421166036185)">
<circle cx="0" cy="0" r="5" fill="#8b7a98"></circle>
<animate attributeName="opacity" dur="0.8130081300813008s" repeatCount="indefinite" keyTimes="0;0.5;1" calcMode="spline" keySplines="0.2 0 0.8 1;0.2 0 0.8 1" begin="-0.28225187912256483s" values="1;0.5;1"></animate>
</g><g transform="translate(1179.3256457168277 230.26517104705798) rotate(2.0254168874944423) scale(0.13173623841773166)">
<circle cx="0" cy="0" r="5" fill="#8b7a98"></circle>
<animate attributeName="opacity" dur="0.8130081300813008s" repeatCount="indefinite" keyTimes="0;0.5;1" calcMode="spline" keySplines="0.2 0 0.8 1;0.2 0 0.8 1" begin="-0.28838778953827277s" values="1;0.5;1"></animate>
</g><g transform="translate(771.558672879133 414.89359243158515) rotate(119.00636001990742) scale(0.14878107015108255)">
<circle cx="0" cy="0" r="5" fill="#8b7a98"></circle>
<animate attributeName="opacity" dur="0.8130081300813008s" repeatCount="indefinite" keyTimes="0;0.5;1" calcMode="spline" keySplines="0.2 0 0.8 1;0.2 0 0.8 1" begin="-0.29452369995398064s" values="1;0.5;1"></animate>
</g><g transform="translate(1214.2734398173786 450.7969431516123) rotate(19.486348793113912) scale(0.1284344053716919)">
<circle cx="0" cy="0" r="5" fill="#e0d7e8"></circle>
<animate attributeName="opacity" dur="0.8130081300813008s" repeatCount="indefinite" keyTimes="0;0.5;1" calcMode="spline" keySplines="0.2 0 0.8 1;0.2 0 0.8 1" begin="-0.3006596103696886s" values="1;0.5;1"></animate>
</g><g transform="translate(100.13959702287632 683.8034982481615) rotate(324.98890530649237) scale(0.13850086297993922)">
<circle cx="0" cy="0" r="5" fill="#8b7a98"></circle>
<animate attributeName="opacity" dur="0.8130081300813008s" repeatCount="indefinite" keyTimes="0;0.5;1" calcMode="spline" keySplines="0.2 0 0.8 1;0.2 0 0.8 1" begin="-0.3067955207853965s" values="1;0.5;1"></animate>
</g><g transform="translate(1190.7821821292275 432.09196378377874) rotate(172.51451947763806) scale(0.16035857424048475)">
<circle cx="0" cy="0" r="5" fill="#8b7a98"></circle>
<animate attributeName="opacity" dur="0.8130081300813008s" repeatCount="indefinite" keyTimes="0;0.5;1" calcMode="spline" keySplines="0.2 0 0.8 1;0.2 0 0.8 1" begin="-0.31293143120110445s" values="1;0.5;1"></animate>
</g><g transform="translate(457.5079975925482 724.3070475048786) rotate(86.96896474896859) scale(0.1392413068722832)">
<circle cx="0" cy="0" r="5" fill="#e0d7e8"></circle>
<animate attributeName="opacity" dur="0.8130081300813008s" repeatCount="indefinite" keyTimes="0;0.5;1" calcMode="spline" keySplines="0.2 0 0.8 1;0.2 0 0.8 1" begin="-0.3190673416168124s" values="1;0.5;1"></animate>
</g><g transform="translate(1424.5760311745198 815.9396516468967) rotate(113.08807790455498) scale(0.16643507695202114)">
<circle cx="0" cy="0" r="5" fill="#8b7a98"></circle>
<animate attributeName="opacity" dur="0.8130081300813008s" repeatCount="indefinite" keyTimes="0;0.5;1" calcMode="spline" keySplines="0.2 0 0.8 1;0.2 0 0.8 1" begin="-0.3252032520325203s" values="1;0.5;1"></animate>
</g><g transform="translate(1386.991570662313 946.864294261587) rotate(329.8221735357017) scale(0.15322550013467642)">
<circle cx="0" cy="0" r="5" fill="#e0d7e8"></circle>
<animate attributeName="opacity" dur="0.8130081300813008s" repeatCount="indefinite" keyTimes="0;0.5;1" calcMode="spline" keySplines="0.2 0 0.8 1;0.2 0 0.8 1" begin="-0.33133916244822825s" values="1;0.5;1"></animate>
</g><g transform="translate(1098.8378231173933 863.471707935876) rotate(98.69422812198654) scale(0.16551589528339541)">
<circle cx="0" cy="0" r="5" fill="#8b7a98"></circle>
<animate attributeName="opacity" dur="0.8130081300813008s" repeatCount="indefinite" keyTimes="0;0.5;1" calcMode="spline" keySplines="0.2 0 0.8 1;0.2 0 0.8 1" begin="-0.33747507286393613s" values="1;0.5;1"></animate>
</g><g transform="translate(371.07881728082305 600.856191740552) rotate(298.3767529502577) scale(0.1380732766573838)">
<circle cx="0" cy="0" r="5" fill="#8b7a98"></circle>
<animate attributeName="opacity" dur="0.8130081300813008s" repeatCount="indefinite" keyTimes="0;0.5;1" calcMode="spline" keySplines="0.2 0 0.8 1;0.2 0 0.8 1" begin="-0.3436109832796441s" values="1;0.5;1"></animate>
</g><g transform="translate(928.8907640334797 522.9611034610159) rotate(177.13606817979144) scale(0.16537252799544472)">
<circle cx="0" cy="0" r="5" fill="#8b7a98"></circle>
<animate attributeName="opacity" dur="0.8130081300813008s" repeatCount="indefinite" keyTimes="0;0.5;1" calcMode="spline" keySplines="0.2 0 0.8 1;0.2 0 0.8 1" begin="-0.34974689369535206s" values="1;0.5;1"></animate>
</g><g transform="translate(1217.2977668285675 827.7036611155112) rotate(184.13073006594837) scale(0.17655200014659475)">
<circle cx="0" cy="0" r="5" fill="#e0d7e8"></circle>
<animate attributeName="opacity" dur="0.8130081300813008s" repeatCount="indefinite" keyTimes="0;0.5;1" calcMode="spline" keySplines="0.2 0 0.8 1;0.2 0 0.8 1" begin="-0.35588280411106s" values="1;0.5;1"></animate>
</g><g transform="translate(933.4820233801724 630.4275379723965) rotate(17.919810560146647) scale(0.13718915409667773)">
<circle cx="0" cy="0" r="5" fill="#8b7a98"></circle>
<animate attributeName="opacity" dur="0.8130081300813008s" repeatCount="indefinite" keyTimes="0;0.5;1" calcMode="spline" keySplines="0.2 0 0.8 1;0.2 0 0.8 1" begin="-0.3620187145267679s" values="1;0.5;1"></animate>
</g><g transform="translate(1109.6257084205286 85.75742823903097) rotate(39.08238575287204) scale(0.16851060222280137)">
<circle cx="0" cy="0" r="5" fill="#e0d7e8"></circle>
<animate attributeName="opacity" dur="0.8130081300813008s" repeatCount="indefinite" keyTimes="0;0.5;1" calcMode="spline" keySplines="0.2 0 0.8 1;0.2 0 0.8 1" begin="-0.36815462494247586s" values="1;0.5;1"></animate>
</g><g transform="translate(1405.4310410602404 622.934708252781) rotate(249.04081828276995) scale(0.15378629586930545)">
<circle cx="0" cy="0" r="5" fill="#8b7a98"></circle>
<animate attributeName="opacity" dur="0.8130081300813008s" repeatCount="indefinite" keyTimes="0;0.5;1" calcMode="spline" keySplines="0.2 0 0.8 1;0.2 0 0.8 1" begin="-0.3742905353581838s" values="1;0.5;1"></animate>
</g><g transform="translate(1524.6527608803835 591.1359644617479) rotate(304.23316422566006) scale(0.1595774168983451)">
<circle cx="0" cy="0" r="5" fill="#8b7a98"></circle>
<animate attributeName="opacity" dur="0.8130081300813008s" repeatCount="indefinite" keyTimes="0;0.5;1" calcMode="spline" keySplines="0.2 0 0.8 1;0.2 0 0.8 1" begin="-0.3804264457738917s" values="1;0.5;1"></animate>
</g><g transform="translate(759.3849794572423 109.11040142430565) rotate(328.07049345036506) scale(0.14934375669658936)">
<circle cx="0" cy="0" r="5" fill="#e0d7e8"></circle>
<animate attributeName="opacity" dur="0.8130081300813008s" repeatCount="indefinite" keyTimes="0;0.5;1" calcMode="spline" keySplines="0.2 0 0.8 1;0.2 0 0.8 1" begin="-0.3865623561895996s" values="1;0.5;1"></animate>
</g><g transform="translate(1016.2423116312444 423.883118709995) rotate(76.75863408105324) scale(0.14299708231824187)">
<circle cx="0" cy="0" r="5" fill="#8b7a98"></circle>
<animate attributeName="opacity" dur="0.8130081300813008s" repeatCount="indefinite" keyTimes="0;0.5;1" calcMode="spline" keySplines="0.2 0 0.8 1;0.2 0 0.8 1" begin="-0.39269826660530754s" values="1;0.5;1"></animate>
</g><g transform="translate(1295.1932085447024 886.0231875077661) rotate(100.7136447350941) scale(0.15216706135698227)">
<circle cx="0" cy="0" r="5" fill="#8b7a98"></circle>
<animate attributeName="opacity" dur="0.8130081300813008s" repeatCount="indefinite" keyTimes="0;0.5;1" calcMode="spline" keySplines="0.2 0 0.8 1;0.2 0 0.8 1" begin="-0.3988341770210155s" values="1;0.5;1"></animate>
</g><g transform="translate(556.2564127819392 741.8689062806485) rotate(275.1127328988093) scale(0.14629670232472622)">
<circle cx="0" cy="0" r="5" fill="#e0d7e8"></circle>
<animate attributeName="opacity" dur="0.8130081300813008s" repeatCount="indefinite" keyTimes="0;0.5;1" calcMode="spline" keySplines="0.2 0 0.8 1;0.2 0 0.8 1" begin="-0.4049700874367234s" values="1;0.5;1"></animate>
</g><g transform="translate(1091.8239101658173 739.807029547599) rotate(19.32659689713507) scale(0.14504331800758608)">
<circle cx="0" cy="0" r="5" fill="#e0d7e8"></circle>
<animate attributeName="opacity" dur="0.8130081300813008s" repeatCount="indefinite" keyTimes="0;0.5;1" calcMode="spline" keySplines="0.2 0 0.8 1;0.2 0 0.8 1" begin="-0.41110599785243135s" values="1;0.5;1"></animate>
</g><g transform="translate(1240.6384389270438 941.9891764811972) rotate(142.98230765207862) scale(0.1382512438188262)">
<circle cx="0" cy="0" r="5" fill="#e0d7e8"></circle>
<animate attributeName="opacity" dur="0.8130081300813008s" repeatCount="indefinite" keyTimes="0;0.5;1" calcMode="spline" keySplines="0.2 0 0.8 1;0.2 0 0.8 1" begin="-0.4172419082681393s" values="1;0.5;1"></animate>
</g><g transform="translate(1800.0208343686309 77.47961531962859) rotate(157.12498585315666) scale(0.1572787777830499)">
<circle cx="0" cy="0" r="5" fill="#8b7a98"></circle>
<animate attributeName="opacity" dur="0.8130081300813008s" repeatCount="indefinite" keyTimes="0;0.5;1" calcMode="spline" keySplines="0.2 0 0.8 1;0.2 0 0.8 1" begin="-0.42337781868384716s" values="1;0.5;1"></animate>
</g><g transform="translate(1713.267410994865 384.9699740458231) rotate(121.6242244794371) scale(0.12789442109547836)">
<circle cx="0" cy="0" r="5" fill="#e0d7e8"></circle>
<animate attributeName="opacity" dur="0.8130081300813008s" repeatCount="indefinite" keyTimes="0;0.5;1" calcMode="spline" keySplines="0.2 0 0.8 1;0.2 0 0.8 1" begin="-0.4295137290995551s" values="1;0.5;1"></animate>
</g><g transform="translate(1135.240086005611 154.63739604247073) rotate(236.70842598442755) scale(0.13768848746117154)">
<circle cx="0" cy="0" r="5" fill="#e0d7e8"></circle>
<animate attributeName="opacity" dur="0.8130081300813008s" repeatCount="indefinite" keyTimes="0;0.5;1" calcMode="spline" keySplines="0.2 0 0.8 1;0.2 0 0.8 1" begin="-0.43564963951526303s" values="1;0.5;1"></animate>
</g><g transform="translate(799.88494885389 676.7781259227502) rotate(357.66867231967007) scale(0.16779647471818196)">
<circle cx="0" cy="0" r="5" fill="#e0d7e8"></circle>
<animate attributeName="opacity" dur="0.8130081300813008s" repeatCount="indefinite" keyTimes="0;0.5;1" calcMode="spline" keySplines="0.2 0 0.8 1;0.2 0 0.8 1" begin="-0.44178554993097097s" values="1;0.5;1"></animate>
</g><g transform="translate(209.78110217359253 822.229630013621) rotate(294.5026474204862) scale(0.1253551419414094)">
<circle cx="0" cy="0" r="5" fill="#e0d7e8"></circle>
<animate attributeName="opacity" dur="0.8130081300813008s" repeatCount="indefinite" keyTimes="0;0.5;1" calcMode="spline" keySplines="0.2 0 0.8 1;0.2 0 0.8 1" begin="-0.44792146034667896s" values="1;0.5;1"></animate>
</g><g transform="translate(669.5480924218233 275.0536700449595) rotate(294.2157451574207) scale(0.12280631715836529)">
<circle cx="0" cy="0" r="5" fill="#e0d7e8"></circle>
<animate attributeName="opacity" dur="0.8130081300813008s" repeatCount="indefinite" keyTimes="0;0.5;1" calcMode="spline" keySplines="0.2 0 0.8 1;0.2 0 0.8 1" begin="-0.4540573707623869s" values="1;0.5;1"></animate>
</g><g transform="translate(1610.3769510341015 125.26485943981876) rotate(150.75120037804294) scale(0.17413426403986787)">
<circle cx="0" cy="0" r="5" fill="#8b7a98"></circle>
<animate attributeName="opacity" dur="0.8130081300813008s" repeatCount="indefinite" keyTimes="0;0.5;1" calcMode="spline" keySplines="0.2 0 0.8 1;0.2 0 0.8 1" begin="-0.4601932811780948s" values="1;0.5;1"></animate>
</g><g transform="translate(1665.7559004586963 767.2466570741205) rotate(43.89244304487528) scale(0.14569614706312936)">
<circle cx="0" cy="0" r="5" fill="#e0d7e8"></circle>
<animate attributeName="opacity" dur="0.8130081300813008s" repeatCount="indefinite" keyTimes="0;0.5;1" calcMode="spline" keySplines="0.2 0 0.8 1;0.2 0 0.8 1" begin="-0.46632919159380276s" values="1;0.5;1"></animate>
</g><g transform="translate(1813.996435341725 789.9700522461385) rotate(81.63567504782823) scale(0.16287336138458852)">
<circle cx="0" cy="0" r="5" fill="#8b7a98"></circle>
<animate attributeName="opacity" dur="0.8130081300813008s" repeatCount="indefinite" keyTimes="0;0.5;1" calcMode="spline" keySplines="0.2 0 0.8 1;0.2 0 0.8 1" begin="-0.47246510200951064s" values="1;0.5;1"></animate>
</g><g transform="translate(794.783465045688 920.2205108145248) rotate(186.8463748354447) scale(0.17781546963947314)">
<circle cx="0" cy="0" r="5" fill="#e0d7e8"></circle>
<animate attributeName="opacity" dur="0.8130081300813008s" repeatCount="indefinite" keyTimes="0;0.5;1" calcMode="spline" keySplines="0.2 0 0.8 1;0.2 0 0.8 1" begin="-0.4786010124252186s" values="1;0.5;1"></animate>
</g><g transform="translate(1489.8144749174317 591.228349046111) rotate(4.558567954647756) scale(0.14667790835458894)">
<circle cx="0" cy="0" r="5" fill="#e0d7e8"></circle>
<animate attributeName="opacity" dur="0.8130081300813008s" repeatCount="indefinite" keyTimes="0;0.5;1" calcMode="spline" keySplines="0.2 0 0.8 1;0.2 0 0.8 1" begin="-0.48473692284092645s" values="1;0.5;1"></animate>
</g><g transform="translate(855.6585101241011 694.7252051768158) rotate(207.17594231399406) scale(0.13239224278496411)">
<circle cx="0" cy="0" r="5" fill="#8b7a98"></circle>
<animate attributeName="opacity" dur="0.8130081300813008s" repeatCount="indefinite" keyTimes="0;0.5;1" calcMode="spline" keySplines="0.2 0 0.8 1;0.2 0 0.8 1" begin="-0.4908728332566344s" values="1;0.5;1"></animate>
</g><g transform="translate(321.1341384630023 411.4288210350252) rotate(168.88888436237193) scale(0.16466731066162899)">
<circle cx="0" cy="0" r="5" fill="#8b7a98"></circle>
<animate attributeName="opacity" dur="0.8130081300813008s" repeatCount="indefinite" keyTimes="0;0.5;1" calcMode="spline" keySplines="0.2 0 0.8 1;0.2 0 0.8 1" begin="-0.49700874367234243s" values="1;0.5;1"></animate>
</g><g transform="translate(1675.3224258720115 238.81915220181833) rotate(83.0815144783117) scale(0.15848529247031015)">
<circle cx="0" cy="0" r="5" fill="#8b7a98"></circle>
<animate attributeName="opacity" dur="0.8130081300813008s" repeatCount="indefinite" keyTimes="0;0.5;1" calcMode="spline" keySplines="0.2 0 0.8 1;0.2 0 0.8 1" begin="-0.5031446540880503s" values="1;0.5;1"></animate>
</g><g transform="translate(1768.3590966776867 830.4116637651648) rotate(215.57315816481832) scale(0.14959280651733353)">
<circle cx="0" cy="0" r="5" fill="#e0d7e8"></circle>
<animate attributeName="opacity" dur="0.8130081300813008s" repeatCount="indefinite" keyTimes="0;0.5;1" calcMode="spline" keySplines="0.2 0 0.8 1;0.2 0 0.8 1" begin="-0.5092805645037582s" values="1;0.5;1"></animate>
</g><g transform="translate(1457.6997471997504 12.446534304108212) rotate(353.0094437518584) scale(0.15481874531699963)">
<circle cx="0" cy="0" r="5" fill="#e0d7e8"></circle>
<animate attributeName="opacity" dur="0.8130081300813008s" repeatCount="indefinite" keyTimes="0;0.5;1" calcMode="spline" keySplines="0.2 0 0.8 1;0.2 0 0.8 1" begin="-0.5154164749194662s" values="1;0.5;1"></animate>
</g><g transform="translate(1302.671372732999 866.8006281139358) rotate(243.22077884965663) scale(0.13135125486425353)">
<circle cx="0" cy="0" r="5" fill="#8b7a98"></circle>
<animate attributeName="opacity" dur="0.8130081300813008s" repeatCount="indefinite" keyTimes="0;0.5;1" calcMode="spline" keySplines="0.2 0 0.8 1;0.2 0 0.8 1" begin="-0.5215523853351741s" values="1;0.5;1"></animate>
</g><g transform="translate(738.4358379857775 791.3995773034543) rotate(159.96401779495096) scale(0.15958365410491585)">
<circle cx="0" cy="0" r="5" fill="#e0d7e8"></circle>
<animate attributeName="opacity" dur="0.8130081300813008s" repeatCount="indefinite" keyTimes="0;0.5;1" calcMode="spline" keySplines="0.2 0 0.8 1;0.2 0 0.8 1" begin="-0.527688295750882s" values="1;0.5;1"></animate>
</g><g transform="translate(544.2107284658487 871.4593598494237) rotate(2.2731240576839085) scale(0.13384785765060056)">
<circle cx="0" cy="0" r="5" fill="#8b7a98"></circle>
<animate attributeName="opacity" dur="0.8130081300813008s" repeatCount="indefinite" keyTimes="0;0.5;1" calcMode="spline" keySplines="0.2 0 0.8 1;0.2 0 0.8 1" begin="-0.53382420616659s" values="1;0.5;1"></animate>
</g><g transform="translate(1892.7391880061607 361.49128320020156) rotate(194.77313855532998) scale(0.15584479413703597)">
<circle cx="0" cy="0" r="5" fill="#8b7a98"></circle>
<animate attributeName="opacity" dur="0.8130081300813008s" repeatCount="indefinite" keyTimes="0;0.5;1" calcMode="spline" keySplines="0.2 0 0.8 1;0.2 0 0.8 1" begin="-0.5399601165822979s" values="1;0.5;1"></animate>
</g><g transform="translate(434.1838143537552 502.70412835111046) rotate(60.90861483458706) scale(0.14350463239045422)">
<circle cx="0" cy="0" r="5" fill="#e0d7e8"></circle>
<animate attributeName="opacity" dur="0.8130081300813008s" repeatCount="indefinite" keyTimes="0;0.5;1" calcMode="spline" keySplines="0.2 0 0.8 1;0.2 0 0.8 1" begin="-0.5460960269980059s" values="1;0.5;1"></animate>
</g><g transform="translate(141.43693714267164 502.46422932135624) rotate(97.96374948725183) scale(0.1642332780258642)">
<circle cx="0" cy="0" r="5" fill="#e0d7e8"></circle>
<animate attributeName="opacity" dur="0.8130081300813008s" repeatCount="indefinite" keyTimes="0;0.5;1" calcMode="spline" keySplines="0.2 0 0.8 1;0.2 0 0.8 1" begin="-0.5522319374137138s" values="1;0.5;1"></animate>
</g><g transform="translate(1068.56489236105 523.4422412294306) rotate(97.56422749795567) scale(0.14367833141835798)">
<circle cx="0" cy="0" r="5" fill="#8b7a98"></circle>
<animate attributeName="opacity" dur="0.8130081300813008s" repeatCount="indefinite" keyTimes="0;0.5;1" calcMode="spline" keySplines="0.2 0 0.8 1;0.2 0 0.8 1" begin="-0.5583678478294217s" values="1;0.5;1"></animate>
</g><g transform="translate(381.7558338452928 566.1070828151993) rotate(158.55532390959158) scale(0.12991191245497669)">
<circle cx="0" cy="0" r="5" fill="#8b7a98"></circle>
<animate attributeName="opacity" dur="0.8130081300813008s" repeatCount="indefinite" keyTimes="0;0.5;1" calcMode="spline" keySplines="0.2 0 0.8 1;0.2 0 0.8 1" begin="-0.5645037582451297s" values="1;0.5;1"></animate>
</g><g transform="translate(534.1095530754232 367.7695632921722) rotate(310.11395826694655) scale(0.14010234776427144)">
<circle cx="0" cy="0" r="5" fill="#8b7a98"></circle>
<animate attributeName="opacity" dur="0.8130081300813008s" repeatCount="indefinite" keyTimes="0;0.5;1" calcMode="spline" keySplines="0.2 0 0.8 1;0.2 0 0.8 1" begin="-0.5706396686608376s" values="1;0.5;1"></animate>
</g><g transform="translate(1607.992910529477 390.3251455662895) rotate(9.464022655364275) scale(0.1330945755291317)">
<circle cx="0" cy="0" r="5" fill="#e0d7e8"></circle>
<animate attributeName="opacity" dur="0.8130081300813008s" repeatCount="indefinite" keyTimes="0;0.5;1" calcMode="spline" keySplines="0.2 0 0.8 1;0.2 0 0.8 1" begin="-0.5767755790765455s" values="1;0.5;1"></animate>
</g><g transform="translate(1379.8268850189581 567.6781628733655) rotate(231.19583942463737) scale(0.12530622602181277)">
<circle cx="0" cy="0" r="5" fill="#e0d7e8"></circle>
<animate attributeName="opacity" dur="0.8130081300813008s" repeatCount="indefinite" keyTimes="0;0.5;1" calcMode="spline" keySplines="0.2 0 0.8 1;0.2 0 0.8 1" begin="-0.5829114894922534s" values="1;0.5;1"></animate>
</g><g transform="translate(721.2619260820633 929.1402059743393) rotate(275.47519762881296) scale(0.1769157870897061)">
<circle cx="0" cy="0" r="5" fill="#8b7a98"></circle>
<animate attributeName="opacity" dur="0.8130081300813008s" repeatCount="indefinite" keyTimes="0;0.5;1" calcMode="spline" keySplines="0.2 0 0.8 1;0.2 0 0.8 1" begin="-0.5890473999079613s" values="1;0.5;1"></animate>
</g><g transform="translate(1608.5931550998523 6.98461450844233) rotate(213.46788766271436) scale(0.16388173467929248)">
<circle cx="0" cy="0" r="5" fill="#8b7a98"></circle>
<animate attributeName="opacity" dur="0.8130081300813008s" repeatCount="indefinite" keyTimes="0;0.5;1" calcMode="spline" keySplines="0.2 0 0.8 1;0.2 0 0.8 1" begin="-0.5951833103236692s" values="1;0.5;1"></animate>
</g><g transform="translate(1389.0316037820382 896.2178556276237) rotate(337.4555673710948) scale(0.12610061661728972)">
<circle cx="0" cy="0" r="5" fill="#e0d7e8"></circle>
<animate attributeName="opacity" dur="0.8130081300813008s" repeatCount="indefinite" keyTimes="0;0.5;1" calcMode="spline" keySplines="0.2 0 0.8 1;0.2 0 0.8 1" begin="-0.6013192207393772s" values="1;0.5;1"></animate>
</g><g transform="translate(1194.2898123288396 943.2871980429791) rotate(332.9259678434731) scale(0.13007428831183648)">
<circle cx="0" cy="0" r="5" fill="#8b7a98"></circle>
<animate attributeName="opacity" dur="0.8130081300813008s" repeatCount="indefinite" keyTimes="0;0.5;1" calcMode="spline" keySplines="0.2 0 0.8 1;0.2 0 0.8 1" begin="-0.6074551311550851s" values="1;0.5;1"></animate>
</g><g transform="translate(797.1321128678969 436.33320483926434) rotate(39.04004642487031) scale(0.1398779313610185)">
<circle cx="0" cy="0" r="5" fill="#e0d7e8"></circle>
<animate attributeName="opacity" dur="0.8130081300813008s" repeatCount="indefinite" keyTimes="0;0.5;1" calcMode="spline" keySplines="0.2 0 0.8 1;0.2 0 0.8 1" begin="-0.613591041570793s" values="1;0.5;1"></animate>
</g><g transform="translate(1559.7302542002626 695.5557743613068) rotate(151.5557527542781) scale(0.17576925684514724)">
<circle cx="0" cy="0" r="5" fill="#e0d7e8"></circle>
<animate attributeName="opacity" dur="0.8130081300813008s" repeatCount="indefinite" keyTimes="0;0.5;1" calcMode="spline" keySplines="0.2 0 0.8 1;0.2 0 0.8 1" begin="-0.619726951986501s" values="1;0.5;1"></animate>
</g><g transform="translate(250.8278093493332 508.19598011808085) rotate(281.4029666476171) scale(0.16299460863637055)">
<circle cx="0" cy="0" r="5" fill="#8b7a98"></circle>
<animate attributeName="opacity" dur="0.8130081300813008s" repeatCount="indefinite" keyTimes="0;0.5;1" calcMode="spline" keySplines="0.2 0 0.8 1;0.2 0 0.8 1" begin="-0.6258628624022089s" values="1;0.5;1"></animate>
</g><g transform="translate(626.4809704197335 229.8084876602511) rotate(148.3373166559636) scale(0.1693945493027111)">
<circle cx="0" cy="0" r="5" fill="#8b7a98"></circle>
<animate attributeName="opacity" dur="0.8130081300813008s" repeatCount="indefinite" keyTimes="0;0.5;1" calcMode="spline" keySplines="0.2 0 0.8 1;0.2 0 0.8 1" begin="-0.6319987728179168s" values="1;0.5;1"></animate>
</g><g transform="translate(1278.1521041581807 648.2982260082753) rotate(283.72543480848327) scale(0.12452895974776072)">
<circle cx="0" cy="0" r="5" fill="#e0d7e8"></circle>
<animate attributeName="opacity" dur="0.8130081300813008s" repeatCount="indefinite" keyTimes="0;0.5;1" calcMode="spline" keySplines="0.2 0 0.8 1;0.2 0 0.8 1" begin="-0.6381346832336248s" values="1;0.5;1"></animate>
</g><g transform="translate(761.232555887632 575.0041315418661) rotate(227.26023817327336) scale(0.17745293717645697)">
<circle cx="0" cy="0" r="5" fill="#8b7a98"></circle>
<animate attributeName="opacity" dur="0.8130081300813008s" repeatCount="indefinite" keyTimes="0;0.5;1" calcMode="spline" keySplines="0.2 0 0.8 1;0.2 0 0.8 1" begin="-0.6442705936493327s" values="1;0.5;1"></animate>
</g><g transform="translate(1585.1593418228015 93.56424245709844) rotate(20.272554556870617) scale(0.12566773695822855)">
<circle cx="0" cy="0" r="5" fill="#e0d7e8"></circle>
<animate attributeName="opacity" dur="0.8130081300813008s" repeatCount="indefinite" keyTimes="0;0.5;1" calcMode="spline" keySplines="0.2 0 0.8 1;0.2 0 0.8 1" begin="-0.6504065040650406s" values="1;0.5;1"></animate>
</g><g transform="translate(162.15511655157292 100.7589731760809) rotate(285.96488450182966) scale(0.12524653511764175)">
<circle cx="0" cy="0" r="5" fill="#8b7a98"></circle>
<animate attributeName="opacity" dur="0.8130081300813008s" repeatCount="indefinite" keyTimes="0;0.5;1" calcMode="spline" keySplines="0.2 0 0.8 1;0.2 0 0.8 1" begin="-0.6565424144807486s" values="1;0.5;1"></animate>
</g><g transform="translate(758.8784330879008 871.1558055258009) rotate(84.50313241055153) scale(0.13882399694313952)">
<circle cx="0" cy="0" r="5" fill="#8b7a98"></circle>
<animate attributeName="opacity" dur="0.8130081300813008s" repeatCount="indefinite" keyTimes="0;0.5;1" calcMode="spline" keySplines="0.2 0 0.8 1;0.2 0 0.8 1" begin="-0.6626783248964565s" values="1;0.5;1"></animate>
</g><g transform="translate(506.3184578913186 503.6875468076173) rotate(22.78864108415309) scale(0.12102477247170598)">
<circle cx="0" cy="0" r="5" fill="#8b7a98"></circle>
<animate attributeName="opacity" dur="0.8130081300813008s" repeatCount="indefinite" keyTimes="0;0.5;1" calcMode="spline" keySplines="0.2 0 0.8 1;0.2 0 0.8 1" begin="-0.6688142353121643s" values="1;0.5;1"></animate>
</g><g transform="translate(622.1472119066857 439.66819593764626) rotate(110.24661855505927) scale(0.12630902860311502)">
<circle cx="0" cy="0" r="5" fill="#8b7a98"></circle>
<animate attributeName="opacity" dur="0.8130081300813008s" repeatCount="indefinite" keyTimes="0;0.5;1" calcMode="spline" keySplines="0.2 0 0.8 1;0.2 0 0.8 1" begin="-0.6749501457278723s" values="1;0.5;1"></animate>
</g><g transform="translate(400.1039940620245 787.1106980427529) rotate(280.2911478938427) scale(0.13666146271092405)">
<circle cx="0" cy="0" r="5" fill="#e0d7e8"></circle>
<animate attributeName="opacity" dur="0.8130081300813008s" repeatCount="indefinite" keyTimes="0;0.5;1" calcMode="spline" keySplines="0.2 0 0.8 1;0.2 0 0.8 1" begin="-0.6810860561435802s" values="1;0.5;1"></animate>
</g><g transform="translate(696.2549313089125 533.2715682078676) rotate(323.1856530732622) scale(0.16785206546188883)">
<circle cx="0" cy="0" r="5" fill="#8b7a98"></circle>
<animate attributeName="opacity" dur="0.8130081300813008s" repeatCount="indefinite" keyTimes="0;0.5;1" calcMode="spline" keySplines="0.2 0 0.8 1;0.2 0 0.8 1" begin="-0.6872219665592882s" values="1;0.5;1"></animate>
</g><g transform="translate(941.5980432085764 575.8776894570497) rotate(349.27842143659103) scale(0.16441233781876233)">
<circle cx="0" cy="0" r="5" fill="#8b7a98"></circle>
<animate attributeName="opacity" dur="0.8130081300813008s" repeatCount="indefinite" keyTimes="0;0.5;1" calcMode="spline" keySplines="0.2 0 0.8 1;0.2 0 0.8 1" begin="-0.6933578769749962s" values="1;0.5;1"></animate>
</g><g transform="translate(923.3081723996643 37.02470343088616) rotate(359.42358429281836) scale(0.15005723806852858)">
<circle cx="0" cy="0" r="5" fill="#e0d7e8"></circle>
<animate attributeName="opacity" dur="0.8130081300813008s" repeatCount="indefinite" keyTimes="0;0.5;1" calcMode="spline" keySplines="0.2 0 0.8 1;0.2 0 0.8 1" begin="-0.6994937873907041s" values="1;0.5;1"></animate>
</g><g transform="translate(608.9997695193553 882.3455123300869) rotate(126.02274918542899) scale(0.16668081841025756)">
<circle cx="0" cy="0" r="5" fill="#8b7a98"></circle>
<animate attributeName="opacity" dur="0.8130081300813008s" repeatCount="indefinite" keyTimes="0;0.5;1" calcMode="spline" keySplines="0.2 0 0.8 1;0.2 0 0.8 1" begin="-0.705629697806412s" values="1;0.5;1"></animate>
</g><g transform="translate(1095.5488750766704 706.2836217695873) rotate(275.1846425875903) scale(0.1304564546719606)">
<circle cx="0" cy="0" r="5" fill="#e0d7e8"></circle>
<animate attributeName="opacity" dur="0.8130081300813008s" repeatCount="indefinite" keyTimes="0;0.5;1" calcMode="spline" keySplines="0.2 0 0.8 1;0.2 0 0.8 1" begin="-0.71176560822212s" values="1;0.5;1"></animate>
</g><g transform="translate(170.28132405290583 206.63189485724092) rotate(58.78059049346295) scale(0.15249367173898098)">
<circle cx="0" cy="0" r="5" fill="#e0d7e8"></circle>
<animate attributeName="opacity" dur="0.8130081300813008s" repeatCount="indefinite" keyTimes="0;0.5;1" calcMode="spline" keySplines="0.2 0 0.8 1;0.2 0 0.8 1" begin="-0.7179015186378279s" values="1;0.5;1"></animate>
</g><g transform="translate(236.5209983988519 133.89278210882097) rotate(253.51829908595138) scale(0.12460959088160327)">
<circle cx="0" cy="0" r="5" fill="#8b7a98"></circle>
<animate attributeName="opacity" dur="0.8130081300813008s" repeatCount="indefinite" keyTimes="0;0.5;1" calcMode="spline" keySplines="0.2 0 0.8 1;0.2 0 0.8 1" begin="-0.7240374290535359s" values="1;0.5;1"></animate>
</g><g transform="translate(120.49980847257673 698.0231499622907) rotate(332.234470898678) scale(0.17976639502762684)">
<circle cx="0" cy="0" r="5" fill="#e0d7e8"></circle>
<animate attributeName="opacity" dur="0.8130081300813008s" repeatCount="indefinite" keyTimes="0;0.5;1" calcMode="spline" keySplines="0.2 0 0.8 1;0.2 0 0.8 1" begin="-0.7301733394692438s" values="1;0.5;1"></animate>
</g><g transform="translate(1311.3773995317415 578.6053073491031) rotate(200.39018062581135) scale(0.1585936309902719)">
<circle cx="0" cy="0" r="5" fill="#e0d7e8"></circle>
<animate attributeName="opacity" dur="0.8130081300813008s" repeatCount="indefinite" keyTimes="0;0.5;1" calcMode="spline" keySplines="0.2 0 0.8 1;0.2 0 0.8 1" begin="-0.7363092498849517s" values="1;0.5;1"></animate>
</g><g transform="translate(186.5225391099457 860.9438501976967) rotate(190.90086089505934) scale(0.1260224638338439)">
<circle cx="0" cy="0" r="5" fill="#8b7a98"></circle>
<animate attributeName="opacity" dur="0.8130081300813008s" repeatCount="indefinite" keyTimes="0;0.5;1" calcMode="spline" keySplines="0.2 0 0.8 1;0.2 0 0.8 1" begin="-0.7424451603006597s" values="1;0.5;1"></animate>
</g><g transform="translate(486.7785636136185 678.4045864471303) rotate(39.052960478527076) scale(0.12099388121072187)">
<circle cx="0" cy="0" r="5" fill="#8b7a98"></circle>
<animate attributeName="opacity" dur="0.8130081300813008s" repeatCount="indefinite" keyTimes="0;0.5;1" calcMode="spline" keySplines="0.2 0 0.8 1;0.2 0 0.8 1" begin="-0.7485810707163676s" values="1;0.5;1"></animate>
</g><g transform="translate(170.96647638601073 581.7964100465988) rotate(164.41683666736643) scale(0.15667975510337115)">
<circle cx="0" cy="0" r="5" fill="#8b7a98"></circle>
<animate attributeName="opacity" dur="0.8130081300813008s" repeatCount="indefinite" keyTimes="0;0.5;1" calcMode="spline" keySplines="0.2 0 0.8 1;0.2 0 0.8 1" begin="-0.7547169811320755s" values="1;0.5;1"></animate>
</g><g transform="translate(61.00824997962947 565.4788675639257) rotate(259.146415729098) scale(0.17579344337283093)">
<circle cx="0" cy="0" r="5" fill="#e0d7e8"></circle>
<animate attributeName="opacity" dur="0.8130081300813008s" repeatCount="indefinite" keyTimes="0;0.5;1" calcMode="spline" keySplines="0.2 0 0.8 1;0.2 0 0.8 1" begin="-0.7608528915477833s" values="1;0.5;1"></animate>
</g><g transform="translate(1485.0209647873633 537.4804978296953) rotate(182.4653079070297) scale(0.13301451551708388)">
<circle cx="0" cy="0" r="5" fill="#e0d7e8"></circle>
<animate attributeName="opacity" dur="0.8130081300813008s" repeatCount="indefinite" keyTimes="0;0.5;1" calcMode="spline" keySplines="0.2 0 0.8 1;0.2 0 0.8 1" begin="-0.7669888019634913s" values="1;0.5;1"></animate>
</g><g transform="translate(1741.5601934440879 910.0839221043923) rotate(3.661713405130813) scale(0.13475951536334377)">
<circle cx="0" cy="0" r="5" fill="#e0d7e8"></circle>
<animate attributeName="opacity" dur="0.8130081300813008s" repeatCount="indefinite" keyTimes="0;0.5;1" calcMode="spline" keySplines="0.2 0 0.8 1;0.2 0 0.8 1" begin="-0.7731247123791992s" values="1;0.5;1"></animate>
</g><g transform="translate(455.0946234261502 866.3568167988457) rotate(335.0393299331166) scale(0.15443987546170024)">
<circle cx="0" cy="0" r="5" fill="#8b7a98"></circle>
<animate attributeName="opacity" dur="0.8130081300813008s" repeatCount="indefinite" keyTimes="0;0.5;1" calcMode="spline" keySplines="0.2 0 0.8 1;0.2 0 0.8 1" begin="-0.7792606227949072s" values="1;0.5;1"></animate>
</g><g transform="translate(1040.9176600294227 572.1176983108128) rotate(309.59313040600784) scale(0.1284362010988177)">
<circle cx="0" cy="0" r="5" fill="#e0d7e8"></circle>
<animate attributeName="opacity" dur="0.8130081300813008s" repeatCount="indefinite" keyTimes="0;0.5;1" calcMode="spline" keySplines="0.2 0 0.8 1;0.2 0 0.8 1" begin="-0.7853965332106151s" values="1;0.5;1"></animate>
</g><g transform="translate(484.0129529346196 129.5005125958404) rotate(251.9122044129944) scale(0.1609534424309488)">
<circle cx="0" cy="0" r="5" fill="#e0d7e8"></circle>
<animate attributeName="opacity" dur="0.8130081300813008s" repeatCount="indefinite" keyTimes="0;0.5;1" calcMode="spline" keySplines="0.2 0 0.8 1;0.2 0 0.8 1" begin="-0.791532443626323s" values="1;0.5;1"></animate>
</g><g transform="translate(790.5672607772372 760.9198790145768) rotate(262.9534338003892) scale(0.1342896745536117)">
<circle cx="0" cy="0" r="5" fill="#8b7a98"></circle>
<animate attributeName="opacity" dur="0.8130081300813008s" repeatCount="indefinite" keyTimes="0;0.5;1" calcMode="spline" keySplines="0.2 0 0.8 1;0.2 0 0.8 1" begin="-0.797668354042031s" values="1;0.5;1"></animate>
</g><g transform="translate(1892.3583245427512 372.2892433718127) rotate(196.91263971535557) scale(0.15720009643905675)">
<circle cx="0" cy="0" r="5" fill="#8b7a98"></circle>
<animate attributeName="opacity" dur="0.8130081300813008s" repeatCount="indefinite" keyTimes="0;0.5;1" calcMode="spline" keySplines="0.2 0 0.8 1;0.2 0 0.8 1" begin="-0.8038042644577389s" values="1;0.5;1"></animate>
</g><g transform="translate(898.3120019170917 189.5532788590628) rotate(34.072007614323766) scale(0.12131185187290784)">
<circle cx="0" cy="0" r="5" fill="#e0d7e8"></circle>
<animate attributeName="opacity" dur="0.8130081300813008s" repeatCount="indefinite" keyTimes="0;0.5;1" calcMode="spline" keySplines="0.2 0 0.8 1;0.2 0 0.8 1" begin="-0.8099401748734468s" values="1;0.5;1"></animate>
</g><g transform="translate(1131.1943012515035 423.23259935902917) rotate(308.17655452173517) scale(0.15762881786156233)">
<circle cx="0" cy="0" r="5" fill="#e0d7e8"></circle>
<animate attributeName="opacity" dur="0.8130081300813008s" repeatCount="indefinite" keyTimes="0;0.5;1" calcMode="spline" keySplines="0.2 0 0.8 1;0.2 0 0.8 1" begin="-0.8160760852891548s" values="1;0.5;1"></animate>
</g><g transform="translate(572.6304200265944 10.499929841434742) rotate(355.771151954897) scale(0.13544641792176726)">
<circle cx="0" cy="0" r="5" fill="#8b7a98"></circle>
<animate attributeName="opacity" dur="0.8130081300813008s" repeatCount="indefinite" keyTimes="0;0.5;1" calcMode="spline" keySplines="0.2 0 0.8 1;0.2 0 0.8 1" begin="-0.8222119957048627s" values="1;0.5;1"></animate>
</g><g transform="translate(23.617142494569425 199.2187971008426) rotate(53.977549401345435) scale(0.17942588518943245)">
<circle cx="0" cy="0" r="5" fill="#8b7a98"></circle>
<animate attributeName="opacity" dur="0.8130081300813008s" repeatCount="indefinite" keyTimes="0;0.5;1" calcMode="spline" keySplines="0.2 0 0.8 1;0.2 0 0.8 1" begin="-0.8283479061205706s" values="1;0.5;1"></animate>
</g><g transform="translate(578.3602759797834 247.46479520068368) rotate(8.015128883482756) scale(0.13061192333606084)">
<circle cx="0" cy="0" r="5" fill="#8b7a98"></circle>
<animate attributeName="opacity" dur="0.8130081300813008s" repeatCount="indefinite" keyTimes="0;0.5;1" calcMode="spline" keySplines="0.2 0 0.8 1;0.2 0 0.8 1" begin="-0.8344838165362786s" values="1;0.5;1"></animate>
</g><g transform="translate(415.0089627969149 613.4013307752015) rotate(187.50975993730913) scale(0.17289661468561163)">
<circle cx="0" cy="0" r="5" fill="#e0d7e8"></circle>
<animate attributeName="opacity" dur="0.8130081300813008s" repeatCount="indefinite" keyTimes="0;0.5;1" calcMode="spline" keySplines="0.2 0 0.8 1;0.2 0 0.8 1" begin="-0.8406197269519865s" values="1;0.5;1"></animate>
</g><g transform="translate(593.9975911249207 642.0380503854061) rotate(316.8698648948037) scale(0.1640630074211586)">
<circle cx="0" cy="0" r="5" fill="#8b7a98"></circle>
<animate attributeName="opacity" dur="0.8130081300813008s" repeatCount="indefinite" keyTimes="0;0.5;1" calcMode="spline" keySplines="0.2 0 0.8 1;0.2 0 0.8 1" begin="-0.8467556373676943s" values="1;0.5;1"></animate>
</g><g transform="translate(28.025468547807094 565.9374555696594) rotate(289.99341570809713) scale(0.1705836407370676)">
<circle cx="0" cy="0" r="5" fill="#8b7a98"></circle>
<animate attributeName="opacity" dur="0.8130081300813008s" repeatCount="indefinite" keyTimes="0;0.5;1" calcMode="spline" keySplines="0.2 0 0.8 1;0.2 0 0.8 1" begin="-0.8528915477834023s" values="1;0.5;1"></animate>
</g><g transform="translate(607.2897844652931 160.40001327241305) rotate(359.05978985958365) scale(0.15437285383271612)">
<circle cx="0" cy="0" r="5" fill="#8b7a98"></circle>
<animate attributeName="opacity" dur="0.8130081300813008s" repeatCount="indefinite" keyTimes="0;0.5;1" calcMode="spline" keySplines="0.2 0 0.8 1;0.2 0 0.8 1" begin="-0.8590274581991102s" values="1;0.5;1"></animate>
</g><g transform="translate(1451.2072022370146 52.782267945672814) rotate(201.40399608823773) scale(0.12597945639716568)">
<circle cx="0" cy="0" r="5" fill="#8b7a98"></circle>
<animate attributeName="opacity" dur="0.8130081300813008s" repeatCount="indefinite" keyTimes="0;0.5;1" calcMode="spline" keySplines="0.2 0 0.8 1;0.2 0 0.8 1" begin="-0.8651633686148181s" values="1;0.5;1"></animate>
</g><g transform="translate(937.7325135924639 361.75880512037025) rotate(11.914333314610186) scale(0.16371672263453893)">
<circle cx="0" cy="0" r="5" fill="#e0d7e8"></circle>
<animate attributeName="opacity" dur="0.8130081300813008s" repeatCount="indefinite" keyTimes="0;0.5;1" calcMode="spline" keySplines="0.2 0 0.8 1;0.2 0 0.8 1" begin="-0.8712992790305261s" values="1;0.5;1"></animate>
</g><g transform="translate(529.2795230901152 724.0659665324506) rotate(146.5374437943079) scale(0.13357230360904773)">
<circle cx="0" cy="0" r="5" fill="#e0d7e8"></circle>
<animate attributeName="opacity" dur="0.8130081300813008s" repeatCount="indefinite" keyTimes="0;0.5;1" calcMode="spline" keySplines="0.2 0 0.8 1;0.2 0 0.8 1" begin="-0.877435189446234s" values="1;0.5;1"></animate>
</g><g transform="translate(397.94696480334125 389.2432650537309) rotate(334.93828452835334) scale(0.131760497363471)">
<circle cx="0" cy="0" r="5" fill="#e0d7e8"></circle>
<animate attributeName="opacity" dur="0.8130081300813008s" repeatCount="indefinite" keyTimes="0;0.5;1" calcMode="spline" keySplines="0.2 0 0.8 1;0.2 0 0.8 1" begin="-0.8835710998619419s" values="1;0.5;1"></animate>
</g><g transform="translate(1522.4551815087802 111.89889786017201) rotate(345.5888189554958) scale(0.1675974521926155)">
<circle cx="0" cy="0" r="5" fill="#e0d7e8"></circle>
<animate attributeName="opacity" dur="0.8130081300813008s" repeatCount="indefinite" keyTimes="0;0.5;1" calcMode="spline" keySplines="0.2 0 0.8 1;0.2 0 0.8 1" begin="-0.88970701027765s" values="1;0.5;1"></animate>
</g><g transform="translate(1341.0452240925867 304.04627886795885) rotate(250.33302825275504) scale(0.1411156777734349)">
<circle cx="0" cy="0" r="5" fill="#e0d7e8"></circle>
<animate attributeName="opacity" dur="0.8130081300813008s" repeatCount="indefinite" keyTimes="0;0.5;1" calcMode="spline" keySplines="0.2 0 0.8 1;0.2 0 0.8 1" begin="-0.8958429206933579s" values="1;0.5;1"></animate>
</g><g transform="translate(507.3970008330973 198.4145611499203) rotate(352.60691123869697) scale(0.1442170547935412)">
<circle cx="0" cy="0" r="5" fill="#e0d7e8"></circle>
<animate attributeName="opacity" dur="0.8130081300813008s" repeatCount="indefinite" keyTimes="0;0.5;1" calcMode="spline" keySplines="0.2 0 0.8 1;0.2 0 0.8 1" begin="-0.9019788311090658s" values="1;0.5;1"></animate>
</g><g transform="translate(1859.999991728747 265.6797428113226) rotate(3.150876603495325) scale(0.16122854889165067)">
<circle cx="0" cy="0" r="5" fill="#8b7a98"></circle>
<animate attributeName="opacity" dur="0.8130081300813008s" repeatCount="indefinite" keyTimes="0;0.5;1" calcMode="spline" keySplines="0.2 0 0.8 1;0.2 0 0.8 1" begin="-0.9081147415247738s" values="1;0.5;1"></animate>
</g><g transform="translate(546.7468816986469 485.78510343885847) rotate(48.50536450659773) scale(0.16365140035195808)">
<circle cx="0" cy="0" r="5" fill="#e0d7e8"></circle>
<animate attributeName="opacity" dur="0.8130081300813008s" repeatCount="indefinite" keyTimes="0;0.5;1" calcMode="spline" keySplines="0.2 0 0.8 1;0.2 0 0.8 1" begin="-0.9142506519404817s" values="1;0.5;1"></animate>
</g><g transform="translate(502.00778457643634 779.9793304623265) rotate(358.8073579910995) scale(0.1320885080666972)">
<circle cx="0" cy="0" r="5" fill="#e0d7e8"></circle>
<animate attributeName="opacity" dur="0.8130081300813008s" repeatCount="indefinite" keyTimes="0;0.5;1" calcMode="spline" keySplines="0.2 0 0.8 1;0.2 0 0.8 1" begin="-0.9203865623561897s" values="1;0.5;1"></animate>
</g><g transform="translate(1107.3610347261754 815.9229137835374) rotate(209.3042215444948) scale(0.14775834717020125)">
<circle cx="0" cy="0" r="5" fill="#8b7a98"></circle>
<animate attributeName="opacity" dur="0.8130081300813008s" repeatCount="indefinite" keyTimes="0;0.5;1" calcMode="spline" keySplines="0.2 0 0.8 1;0.2 0 0.8 1" begin="-0.9265224727718976s" values="1;0.5;1"></animate>
</g><g transform="translate(368.0847245936394 294.8154002341062) rotate(242.21651264324768) scale(0.1306146297915843)">
<circle cx="0" cy="0" r="5" fill="#8b7a98"></circle>
<animate attributeName="opacity" dur="0.8130081300813008s" repeatCount="indefinite" keyTimes="0;0.5;1" calcMode="spline" keySplines="0.2 0 0.8 1;0.2 0 0.8 1" begin="-0.9326583831876055s" values="1;0.5;1"></animate>
</g><g transform="translate(1581.133638013349 337.4708288525824) rotate(284.7693700976387) scale(0.1385420957184416)">
<circle cx="0" cy="0" r="5" fill="#8b7a98"></circle>
<animate attributeName="opacity" dur="0.8130081300813008s" repeatCount="indefinite" keyTimes="0;0.5;1" calcMode="spline" keySplines="0.2 0 0.8 1;0.2 0 0.8 1" begin="-0.9387942936033133s" values="1;0.5;1"></animate>
</g><g transform="translate(125.13602781028163 848.5670357803057) rotate(132.71701865156422) scale(0.1785183854226909)">
<circle cx="0" cy="0" r="5" fill="#e0d7e8"></circle>
<animate attributeName="opacity" dur="0.8130081300813008s" repeatCount="indefinite" keyTimes="0;0.5;1" calcMode="spline" keySplines="0.2 0 0.8 1;0.2 0 0.8 1" begin="-0.9449302040190213s" values="1;0.5;1"></animate>
</g><g transform="translate(1663.7277935054246 190.72043413219262) rotate(63.73558431597212) scale(0.13972988813267448)">
<circle cx="0" cy="0" r="5" fill="#e0d7e8"></circle>
<animate attributeName="opacity" dur="0.8130081300813008s" repeatCount="indefinite" keyTimes="0;0.5;1" calcMode="spline" keySplines="0.2 0 0.8 1;0.2 0 0.8 1" begin="-0.9510661144347292s" values="1;0.5;1"></animate>
</g><g transform="translate(975.2898282053612 869.1364163299696) rotate(46.738169828357734) scale(0.14463098736888846)">
<circle cx="0" cy="0" r="5" fill="#8b7a98"></circle>
<animate attributeName="opacity" dur="0.8130081300813008s" repeatCount="indefinite" keyTimes="0;0.5;1" calcMode="spline" keySplines="0.2 0 0.8 1;0.2 0 0.8 1" begin="-0.9572020248504371s" values="1;0.5;1"></animate>
</g><g transform="translate(899.5930978244332 889.6989396008877) rotate(62.7537657832616) scale(0.17560898913913012)">
<circle cx="0" cy="0" r="5" fill="#8b7a98"></circle>
<animate attributeName="opacity" dur="0.8130081300813008s" repeatCount="indefinite" keyTimes="0;0.5;1" calcMode="spline" keySplines="0.2 0 0.8 1;0.2 0 0.8 1" begin="-0.9633379352661451s" values="1;0.5;1"></animate>
</g><g transform="translate(1603.4392035020885 308.19439838350894) rotate(231.19715296643759) scale(0.13796109243320437)">
<circle cx="0" cy="0" r="5" fill="#e0d7e8"></circle>
<animate attributeName="opacity" dur="0.8130081300813008s" repeatCount="indefinite" keyTimes="0;0.5;1" calcMode="spline" keySplines="0.2 0 0.8 1;0.2 0 0.8 1" begin="-0.9694738456818529s" values="1;0.5;1"></animate>
</g><g transform="translate(410.7202033288089 162.69924829406273) rotate(227.78759793105144) scale(0.1470770929533971)">
<circle cx="0" cy="0" r="5" fill="#e0d7e8"></circle>
<animate attributeName="opacity" dur="0.8130081300813008s" repeatCount="indefinite" keyTimes="0;0.5;1" calcMode="spline" keySplines="0.2 0 0.8 1;0.2 0 0.8 1" begin="-0.9756097560975608s" values="1;0.5;1"></animate>
</g><g transform="translate(655.0894576246804 198.9629550169433) rotate(98.63221418985061) scale(0.1620787793677108)">
<circle cx="0" cy="0" r="5" fill="#e0d7e8"></circle>
<animate attributeName="opacity" dur="0.8130081300813008s" repeatCount="indefinite" keyTimes="0;0.5;1" calcMode="spline" keySplines="0.2 0 0.8 1;0.2 0 0.8 1" begin="-0.9817456665132688s" values="1;0.5;1"></animate>
</g><g transform="translate(531.0161052630328 701.5797217642024) rotate(94.0765167428585) scale(0.1325324091565138)">
<circle cx="0" cy="0" r="5" fill="#8b7a98"></circle>
<animate attributeName="opacity" dur="0.8130081300813008s" repeatCount="indefinite" keyTimes="0;0.5;1" calcMode="spline" keySplines="0.2 0 0.8 1;0.2 0 0.8 1" begin="-0.9878815769289769s" values="1;0.5;1"></animate>
</g><g transform="translate(1272.124648906685 150.58743557524215) rotate(350.99981459342376) scale(0.15950888495901283)">
<circle cx="0" cy="0" r="5" fill="#e0d7e8"></circle>
<animate attributeName="opacity" dur="0.8130081300813008s" repeatCount="indefinite" keyTimes="0;0.5;1" calcMode="spline" keySplines="0.2 0 0.8 1;0.2 0 0.8 1" begin="-0.9940174873446849s" values="1;0.5;1"></animate>
</g><g transform="translate(590.8832949685255 742.4582127094096) rotate(191.32540685325517) scale(0.1446640724611039)">
<circle cx="0" cy="0" r="5" fill="#8b7a98"></circle>
<animate attributeName="opacity" dur="0.8130081300813008s" repeatCount="indefinite" keyTimes="0;0.5;1" calcMode="spline" keySplines="0.2 0 0.8 1;0.2 0 0.8 1" begin="-1.0001533977603927s" values="1;0.5;1"></animate>
</g><g transform="translate(423.5551931598677 90.22078822301994) rotate(305.26941672095154) scale(0.1769266119183851)">
<circle cx="0" cy="0" r="5" fill="#e0d7e8"></circle>
<animate attributeName="opacity" dur="0.8130081300813008s" repeatCount="indefinite" keyTimes="0;0.5;1" calcMode="spline" keySplines="0.2 0 0.8 1;0.2 0 0.8 1" begin="-1.0062893081761006s" values="1;0.5;1"></animate>
</g><g transform="translate(1201.2144526494667 920.1636302183471) rotate(57.23630183135813) scale(0.15359165895601687)">
<circle cx="0" cy="0" r="5" fill="#e0d7e8"></circle>
<animate attributeName="opacity" dur="0.8130081300813008s" repeatCount="indefinite" keyTimes="0;0.5;1" calcMode="spline" keySplines="0.2 0 0.8 1;0.2 0 0.8 1" begin="-1.0124252185918086s" values="1;0.5;1"></animate>
</g><g transform="translate(818.2763662767966 641.4511620637109) rotate(251.33051488132364) scale(0.14731538363965876)">
<circle cx="0" cy="0" r="5" fill="#e0d7e8"></circle>
<animate attributeName="opacity" dur="0.8130081300813008s" repeatCount="indefinite" keyTimes="0;0.5;1" calcMode="spline" keySplines="0.2 0 0.8 1;0.2 0 0.8 1" begin="-1.0185611290075165s" values="1;0.5;1"></animate>
</g><g transform="translate(379.17642323802056 74.68668687800731) rotate(205.93068288658608) scale(0.13064373256016285)">
<circle cx="0" cy="0" r="5" fill="#e0d7e8"></circle>
<animate attributeName="opacity" dur="0.8130081300813008s" repeatCount="indefinite" keyTimes="0;0.5;1" calcMode="spline" keySplines="0.2 0 0.8 1;0.2 0 0.8 1" begin="-1.0246970394232244s" values="1;0.5;1"></animate>
</g><g transform="translate(1056.8076362462393 507.2850208377069) rotate(133.2792380542487) scale(0.16013699374598953)">
<circle cx="0" cy="0" r="5" fill="#8b7a98"></circle>
<animate attributeName="opacity" dur="0.8130081300813008s" repeatCount="indefinite" keyTimes="0;0.5;1" calcMode="spline" keySplines="0.2 0 0.8 1;0.2 0 0.8 1" begin="-1.0308329498389324s" values="1;0.5;1"></animate>
</g><g transform="translate(867.4331681835771 874.5510969089237) rotate(34.171622891062526) scale(0.1436372393828616)">
<circle cx="0" cy="0" r="5" fill="#e0d7e8"></circle>
<animate attributeName="opacity" dur="0.8130081300813008s" repeatCount="indefinite" keyTimes="0;0.5;1" calcMode="spline" keySplines="0.2 0 0.8 1;0.2 0 0.8 1" begin="-1.0369688602546403s" values="1;0.5;1"></animate>
</g></g>
</svg>